<svg xmlns="http://www.w3.org/2000/svg" viewBox="0 0 28.12 28.41">
    <defs>
        <style>.cls-1{fill:#412c76;}</style>
    </defs>
    <title>bale12</title>
    <g id="Layer_2" data-name="Layer 2">
        <g id="Layer_1-2" data-name="Layer 1">
            <path class="cls-1"
                  d="M14.06,28.41h-.19A14.2,14.2,0,0,1,0,14.17V2.66A2.64,2.64,0,0,1,1.46.29,2.64,2.64,0,0,1,4.24.52L6.7,2.37A14,14,0,0,1,14.06.29h0a14.13,14.13,0,0,1,14,14.6,14,14,0,0,1-14,13.52M2.67,2a.71.71,0,0,0-.31.07A.64.64,0,0,0,2,2.66V14.17A12.2,12.2,0,0,0,13.9,26.41,12,12,0,0,0,22.74,6a12,12,0,0,0-8.65-3.72h0A12,12,0,0,0,7.21,4.42l-.61.43L6,4.38c-.54-.43-1.57-1.21-3-2.25A.62.62,0,0,0,2.67,2"/>
            <path class="cls-1"
                  d="M11.58,20.85h0a2.51,2.51,0,0,1-1.77-.73L5.52,15.83A2.5,2.5,0,0,1,9.06,12.3l2.52,2.52,6.24-6.24a2.5,2.5,0,1,1,3.54,3.53l-8,8a2.51,2.51,0,0,1-1.77.73"/>
        </g>
    </g>
</svg>