<svg xmlns="http://www.w3.org/2000/svg" viewBox="0 0 161.31 123.17">
    <defs>
        <style>.cls-1{fill:#fcb912;}.cls-2{fill:#412c76;}</style>
    </defs>
    <title>content</title>
    <g id="Layer_2" data-name="Layer 2">
        <g id="Layer_1-2" data-name="Layer 1">
            <path class="cls-1"
                  d="M76.8,17.48V30.6A1.63,1.63,0,0,0,79.26,32l11.17-6.56a1.63,1.63,0,0,0,0-2.82L79.26,16.07a1.63,1.63,0,0,0-2.46,1.41"/>
            <path class="cls-1" d="M26.26,94.41a1.67,1.67,0,1,1-1.66-1.67,1.66,1.66,0,0,1,1.66,1.67"/>
            <path class="cls-2"
                  d="M160.31,48.24H146.86V16.43a6.79,6.79,0,0,0-6.79-6.79h-31.4V1a1,1,0,0,0-2,0V43a3.06,3.06,0,0,1-3,3h-38a3.06,3.06,0,0,1-3-3v-38a3.06,3.06,0,0,1,3-3H97.2a1,1,0,0,0,0-2H65.64a5.06,5.06,0,0,0-5,5.05V9.64H21.64a6.8,6.8,0,0,0-6.8,6.79v23.3H1a1,1,0,0,0-1,1V86.8a1,1,0,0,0,1,1H14.84V99.92a6.81,6.81,0,0,0,6.8,6.8h48L55.21,121.17H44.83a1,1,0,0,0,0,2h68.53a1,1,0,0,0,0-2H103.22L87.07,105a1,1,0,1,0-1.42,1.41l14.74,14.74H58l14.45-14.45H80a1,1,0,0,0,0-2H21.64a4.8,4.8,0,0,1-4.8-4.8V87.8H47.08a1,1,0,0,0,1-1V40.73a1,1,0,0,0-1-1H16.84V16.43a4.8,4.8,0,0,1,4.8-4.79h39V26.19H23.06a1,1,0,0,0,0,2H60.59V43a5.06,5.06,0,0,0,5,5h38a5.06,5.06,0,0,0,5-5V28.19h36.19V48.24H116.58a1,1,0,0,0-1,1V81.3a1,1,0,0,0,1,1h28.28V93.41H32.11a1,1,0,0,0,0,2H144.86v4.51a4.8,4.8,0,0,1-4.79,4.8H96.65a1,1,0,0,0,0,2h43.42a6.8,6.8,0,0,0,6.79-6.8V94.86a.84.84,0,0,0,0-.9V82.3h13.45a1,1,0,0,0,1-1V49.24a1,1,0,0,0-1-1M46.08,85.8H2V41.73H46.08Zm62.59-59.61V11.64h31.4a4.8,4.8,0,0,1,4.79,4.79v9.76Zm50.64,24.05V74.59L148.7,64a4.21,4.21,0,0,0-5.93,0l-8.35,8.35-5.95-6a4.22,4.22,0,0,0-5.94,0l-5,5V50.24ZM117.58,80.3V74.14l0,0L124,67.79a2.18,2.18,0,0,1,3.1,0l6,5.95L131,75.8a1,1,0,0,0,0,1.41,1,1,0,0,0,1.42,0L144.18,65.4a2.2,2.2,0,0,1,3.11,0l12,12V80.3Z"/>
            <path class="cls-2"
                  d="M65.43,66.27h32a1,1,0,0,0,1-1V53.94a1,1,0,0,0-1-1h-32a1,1,0,0,0-1,1V65.27a1,1,0,0,0,1,1m1-11.33h30v9.33h-30Z"/>
            <path class="cls-2"
                  d="M64.43,83.6a1,1,0,0,0,1,1h32a1,1,0,0,0,1-1V72.28a1,1,0,0,0-1-1h-32a1,1,0,0,0-1,1Zm2-10.32h30V82.6h-30Z"/>
            <path class="cls-2"
                  d="M134.42,65.47a5.87,5.87,0,1,0-5.86-5.87,5.87,5.87,0,0,0,5.86,5.87m0-9.73a3.87,3.87,0,1,1-3.86,3.86,3.86,3.86,0,0,1,3.86-3.86"/>
            <path class="cls-2" d="M24.6,20.15a1.67,1.67,0,1,0-1.67-1.67,1.66,1.66,0,0,0,1.67,1.67"/>
            <path class="cls-2" d="M31.84,18.48a1.67,1.67,0,1,0-1.67,1.67,1.67,1.67,0,0,0,1.67-1.67"/>
            <path class="cls-2" d="M37.41,18.48a1.67,1.67,0,1,0-1.66,1.67,1.66,1.66,0,0,0,1.66-1.67"/>
            <path class="cls-2" d="M102.8,2.67a1.2,1.2,0,1,0-1.19-1.2,1.2,1.2,0,0,0,1.19,1.2"/>
            <path class="cls-2" d="M7.25,60.53H38.88a1,1,0,0,0,0-2H7.25a1,1,0,0,0,0,2"/>
            <path class="cls-2" d="M7.25,52h20.3a1,1,0,1,0,0-2H7.25a1,1,0,0,0,0,2"/>
            <path class="cls-2" d="M33.41,52h5.47a1,1,0,0,0,0-2H33.41a1,1,0,0,0,0,2"/>
            <path class="cls-2" d="M7.25,77.52H38.88a1,1,0,1,0,0-2H7.25a1,1,0,0,0,0,2"/>
            <path class="cls-2" d="M38.88,67H18.57a1,1,0,0,0,0,2H38.88a1,1,0,1,0,0-2"/>
            <path class="cls-2" d="M7.25,69h5.47a1,1,0,0,0,0-2H7.25a1,1,0,0,0,0,2"/>
        </g>
    </g>
</svg>