<svg xmlns="http://www.w3.org/2000/svg" viewBox="0 0 132.03 123.48">
    <defs>
        <style>.cls-1{fill:#fcb912;}.cls-2{fill:#412c76;}</style>
    </defs>
    <title>idea</title>
    <g id="Layer_2" data-name="Layer 2">
        <g id="Layer_1-2" data-name="Layer 1">
            <path class="cls-1" d="M72.65,115.35a8.13,8.13,0,0,1-16.26,0Z"/>
            <path class="cls-1"
                  d="M14.6,85.21a1,1,0,0,1-.4-1.91l13.54-6a1,1,0,0,1,1.32.52,1,1,0,0,1-.52,1.31L15,85.13a.92.92,0,0,1-.4.08"/>
            <path class="cls-1"
                  d="M27.13,49.19a1.15,1.15,0,0,1-.36-.07L13,43.76a1,1,0,0,1,.72-1.87L27.5,47.25a1,1,0,0,1,.57,1.3,1,1,0,0,1-.94.64"/>
            <path class="cls-1"
                  d="M117.26,84.82a1.14,1.14,0,0,1-.4-.08l-13.54-6a1,1,0,0,1-.51-1.32,1,1,0,0,1,1.32-.51l13.54,6a1,1,0,0,1-.41,1.91"/>
            <path class="cls-1"
                  d="M104.73,48.79a1,1,0,0,1-.36-1.93l13.79-5.36a1,1,0,0,1,.72,1.86l-13.79,5.36a.92.92,0,0,1-.36.07"/>
            <path class="cls-1"
                  d="M79.64,26.92a1.14,1.14,0,0,1-.4-.08,1,1,0,0,1-.51-1.32l6-13.54A1,1,0,0,1,86,11.47a1,1,0,0,1,.52,1.31l-6,13.54a1,1,0,0,1-.92.6"/>
            <path class="cls-1"
                  d="M49.57,25.91a1,1,0,0,1-.93-.63L43.28,11.49a1,1,0,0,1,1.86-.72l5.37,13.78a1,1,0,0,1-.57,1.3,1.19,1.19,0,0,1-.37.06"/>
            <path class="cls-2"
                  d="M64.86,32.67C43.83,32.67,36,51,36,62.55c0,9.08,1.06,10.46,5.56,16.28,1.07,1.39,2.3,3,3.77,5,7.34,10.09,7.28,16.38,7.28,16.47a1,1,0,0,0,1,1H75.74a1,1,0,0,0,1-.9c0-.11,1.22-11.22,5.7-15.24C87.59,80.55,93.11,72,93.11,62.07c0-11.37-7.67-29.4-28.25-29.4m16.23,51c-4.29,3.86-5.84,12.76-6.23,15.63H54.54c-.23-2.29-1.45-8.23-7.6-16.68-1.49-2-2.78-3.72-3.81-5C38.77,72,38,71,38,62.55c0-10.78,7.29-27.88,26.87-27.88,19.12,0,26.25,16.81,26.25,27.4,0,9.31-5.18,17.28-10,21.64"/>
            <path class="cls-2"
                  d="M99.13,81.18a5.92,5.92,0,0,1,3.05-8.07l9.32-3.86a1,1,0,0,0,.62-.92V56.05a1,1,0,0,0-.71-.95L102,52.24a5.92,5.92,0,0,1-3.76-7.87L102.42,34a1,1,0,0,0-.23-1.09l-8.42-8.18a1,1,0,0,0-1.16-.17l-8.8,4.53a5.92,5.92,0,0,1-8.3-3.32L72.11,16a1,1,0,0,0-.94-.67H57.69a1,1,0,0,0-1,.71l-2.6,8.72a5.93,5.93,0,0,1-8,3.76L37.38,24.8a1,1,0,0,0-1.12.24L27.6,34.18a1,1,0,0,0-.22,1l3.74,10.05A5.93,5.93,0,0,1,27.37,53l-9,2.85a1,1,0,0,0-.7,1V69.53a1,1,0,0,0,.64.93l9.6,3.76a5.91,5.91,0,0,1,3.15,8.12l-4.14,8.41A1,1,0,0,0,27.2,92l9.14,7.7a1,1,0,0,0,1.22,0l9.87-7a1,1,0,0,0-1.15-1.63L37,97.63l-8-6.7,3.8-7.71a7.9,7.9,0,0,0-4.22-10.86l-9-3.51V57.51L28,54.87a7.9,7.9,0,0,0,5-10.29l-3.51-9.47,7.76-8.19,8.13,3.45a7.92,7.92,0,0,0,10.67-5l2.39-8h12l3.18,9.13a7.91,7.91,0,0,0,11.09,4.44l8.17-4.21,7.42,7.22-3.9,9.71a7.9,7.9,0,0,0,5,10.52l8.68,2.64V67.66l-8.7,3.61a7.9,7.9,0,0,0-4.08,10.79l4.16,8.49L93.91,99l-8.66-6.65a1,1,0,0,0-1.4.18,1,1,0,0,0,.18,1.4l9.39,7.22a1,1,0,0,0,1.36-.12l8.66-9.63a1,1,0,0,0,.15-1.11Z"/>
            <path class="cls-2" d="M52.69,105.79H75.36a1,1,0,0,0,0-2H52.69a1,1,0,0,0,0,2"/>
            <path class="cls-2" d="M76.34,110.29H52.69a1,1,0,0,0,0,2H76.34a1,1,0,0,0,0-2"/>
            <path class="cls-2"
                  d="M80.61,52.89A7.54,7.54,0,0,0,73.92,64a.47.47,0,0,0-.09.06l-4,4a1,1,0,0,0-.3.71V85.42a1,1,0,1,0,2,0V69.1l3.52-3.52a7.55,7.55,0,1,0,5.53-12.69m0,13.11a5.56,5.56,0,1,1,5.56-5.55A5.57,5.57,0,0,1,80.61,66"/>
            <path class="cls-2"
                  d="M71.61,48.19a6.7,6.7,0,1,0-7.83,6.59V76.43a1,1,0,0,0,2,0V54.82a6.71,6.71,0,0,0,5.83-6.63m-11.4,0a4.7,4.7,0,1,1,4.7,4.7,4.71,4.71,0,0,1-4.7-4.7"/>
            <path class="cls-2"
                  d="M55.69,69.13a6.56,6.56,0,1,0-1.24,1.59l4.67,4.67V91.07a1,1,0,0,0,2,0V75a1,1,0,0,0-.29-.71ZM50,70.5A4.53,4.53,0,1,1,54.51,66,4.53,4.53,0,0,1,50,70.5"/>
            <path class="cls-2"
                  d="M57.35,55.2a5.67,5.67,0,1,0-5.14,3.28,5.64,5.64,0,0,0,4-1.62l4,4v10a1,1,0,0,0,2,0V60.45a1,1,0,0,0-.3-.71Zm-7.75.2a3.69,3.69,0,1,1,5.22,0,3.69,3.69,0,0,1-5.22,0"/>
            <path class="cls-2"
                  d="M125.23,0H6.8A6.81,6.81,0,0,0,0,6.8V90.29a6.81,6.81,0,0,0,6.8,6.8H20.24a1,1,0,0,0,0-2H6.8A4.81,4.81,0,0,1,2,90.29V6.8A4.8,4.8,0,0,1,6.8,2H125.23A4.81,4.81,0,0,1,130,6.8V90.29a4.81,4.81,0,0,1-4.8,4.8H110.49a1,1,0,1,0,0,2h14.74a6.81,6.81,0,0,0,6.8-6.8V6.8a6.81,6.81,0,0,0-6.8-6.8"/>
        </g>
    </g>
</svg>