<svg xmlns="http://www.w3.org/2000/svg" viewBox="0 0 28.12 28.12">
    <defs>
        <style>.cls-1,.cls-2{fill:#412c76;}.cls-2{fill-rule:evenodd;}</style>
    </defs>
    <title>instagram12</title>
    <g id="Layer_2" data-name="Layer 2">
        <g id="Layer_1-2" data-name="Layer 1">
            <path class="cls-1"
                  d="M19,28.12H9.15A9.17,9.17,0,0,1,0,19V9.15A9.17,9.17,0,0,1,9.15,0H19a9.17,9.17,0,0,1,9.15,9.15V19A9.17,9.17,0,0,1,19,28.12M9.15,2A7.16,7.16,0,0,0,2,9.15V19a7.16,7.16,0,0,0,7.15,7.15H19A7.16,7.16,0,0,0,26.12,19V9.15A7.16,7.16,0,0,0,19,2Z"/>
            <path class="cls-1"
                  d="M14.06,20.83a6.77,6.77,0,1,1,6.77-6.77,6.78,6.78,0,0,1-6.77,6.77m0-11.54a4.77,4.77,0,1,0,4.77,4.77,4.78,4.78,0,0,0-4.77-4.77"/>
            <path class="cls-2" d="M23.45,6.67a1.81,1.81,0,1,1-1.81-1.81,1.81,1.81,0,0,1,1.81,1.81"/>
        </g>
    </g>
</svg>