<svg xmlns="http://www.w3.org/2000/svg" viewBox="0 0 28.12 28.12">
    <defs>
        <style>.cls-1{fill:#412c76;}</style>
    </defs>
    <title>telegram12</title>
    <g id="Layer_2" data-name="Layer 2">
        <g id="Layer_1-2" data-name="Layer 1">
            <path class="cls-1"
                  d="M14.06,28.12A14.06,14.06,0,1,1,28.12,14.06,14.08,14.08,0,0,1,14.06,28.12M14.06,2A12.06,12.06,0,1,0,26.12,14.06,12.07,12.07,0,0,0,14.06,2"/>
            <path class="cls-1"
                  d="M11,19.68c-.68-1.34-1.27-2.59-1.93-3.79a1.81,1.81,0,0,0-.87-.77c-.84-.35-1.73-.58-2.58-.9l-.06,0a.56.56,0,0,1,0-1l.06,0L19.91,7.77c.66-.25.95,0,.77.69q-1.38,5.63-2.81,11.23a.93.93,0,0,1-1.6.54c-.9-.65-1.79-1.31-2.65-2a.59.59,0,0,0-.94,0c-.49.46-1,.89-1.67,1.42m.08-1.39s0-.8,0-1.05c0-.45,0-1,0-1s.49-.48.71-.66c1.47-1.21,2.87-2.48,4.3-3.73l1.38-1.23-.08-.1-7.82,4.7c.48,1,1.51,3.1,1.51,3.1"/>
        </g>
    </g>
</svg>