<svg xmlns="http://www.w3.org/2000/svg" viewBox="0 0 146.99 123.67">
    <defs>
        <style>.cls-1{fill:#412c76;}.cls-2{fill:#fcb912;}</style>
    </defs>
    <title>web</title>
    <g id="Layer_2" data-name="Layer 2">
        <g id="Layer_1-2" data-name="Layer 1">
            <path class="cls-1"
                  d="M106.33,63.33a1,1,0,0,0,1-1V30.26a1,1,0,0,0-1-1H62.6a1,1,0,0,0-1,1V62.33a1,1,0,0,0,1,1Zm-42.73-2v-23a1,1,0,0,0,.24.05h41.49V61.33Zm41.73-30.07v5.12H63.84a.69.69,0,0,0-.24,0V31.26Z"/>
            <path class="cls-1"
                  d="M86.36,50.23H68.45a1,1,0,0,0-1,1V56.9a1,1,0,0,0,1,1H86.36a1,1,0,0,0,1-1V51.23a1,1,0,0,0-1-1m-1,5.67H69.45V52.23H85.36Z"/>
            <path class="cls-1"
                  d="M147,84.77a.9.9,0,0,0-.13-.45V6.8A6.8,6.8,0,0,0,140.07,0H21.64a6.81,6.81,0,0,0-6.8,6.8v24a1,1,0,0,0,2,0V6.8A4.8,4.8,0,0,1,21.64,2H140.07a4.8,4.8,0,0,1,4.79,4.8v9.75H23.06a1,1,0,0,0,0,2h121.8V83.77H48.08V43.7a7.33,7.33,0,0,0-7.33-7.32H7.32A7.32,7.32,0,0,0,0,43.7v72.65a7.32,7.32,0,0,0,7.32,7.32H40.75a7.33,7.33,0,0,0,7.33-7.32v-2.82h65.28a1,1,0,0,0,0-2H103.22L87.07,95.38a1,1,0,0,0-1.42,0,1,1,0,0,0,0,1.41l14.74,14.74H58L72.48,97.09H80a1,1,0,0,0,0-2H48.08V85.77h96.78v4.52a4.81,4.81,0,0,1-4.79,4.8H96.65a1,1,0,0,0,0,2h43.42a6.8,6.8,0,0,0,6.79-6.8V85.23a.91.91,0,0,0,.13-.46M46.08,116.35a5.33,5.33,0,0,1-5.33,5.32H7.32A5.33,5.33,0,0,1,2,116.35v-2.88H30a1,1,0,0,0,0-2H2V43.7a5.32,5.32,0,0,1,5.32-5.32H40.75a5.33,5.33,0,0,1,5.33,5.32ZM69.65,97.09,55.21,111.53H48.08V97.09Z"/>
            <path class="cls-1" d="M24.6,10.52a1.67,1.67,0,1,0-1.67-1.67,1.66,1.66,0,0,0,1.67,1.67"/>
            <path class="cls-1" d="M31.84,8.85a1.67,1.67,0,1,0-1.67,1.67,1.67,1.67,0,0,0,1.67-1.67"/>
            <path class="cls-1" d="M37.41,8.85a1.67,1.67,0,1,0-1.66,1.67,1.66,1.66,0,0,0,1.66-1.67"/>
            <path class="cls-1" d="M29.41,44H18.66a2.26,2.26,0,0,0,0,4.51H29.41a2.26,2.26,0,0,0,0-4.51"/>
            <polygon class="cls-2" points="108.1 60.7 123.93 56.53 91.88 45.62 103.93 76.54 108.1 60.7"/>
            <path class="cls-2" d="M39.08,112.47a1.67,1.67,0,1,1-1.67-1.67,1.67,1.67,0,0,1,1.67,1.67"/>
        </g>
    </g>
</svg>