<svg xmlns="http://www.w3.org/2000/svg" viewBox="0 0 132.15 126.46">
    <defs>
        <style>.cls-1{fill:#fcb912;}.cls-2{fill:#412c76;}</style>
    </defs>
    <title>webinar</title>
    <g id="Layer_2" data-name="Layer 2">
        <g id="Layer_1-2" data-name="Layer 1">
            <path class="cls-1"
                  d="M57.88,68V88.82a2.59,2.59,0,0,0,3.9,2.24l17.7-10.39a2.6,2.6,0,0,0,0-4.47L61.78,65.81A2.59,2.59,0,0,0,57.88,68"/>
            <path class="cls-1" d="M123.65,43.71A1.67,1.67,0,1,1,122,42a1.67,1.67,0,0,1,1.67,1.67"/>
            <path class="cls-2"
                  d="M20.28,119a1,1,0,0,0,1-1V106.72a1,1,0,0,0-1-1H9a1,1,0,0,0-1,1V118a1,1,0,0,0,1,1ZM10,107.72h9.28V117H10Z"/>
            <path class="cls-2"
                  d="M132.15,114.14a1,1,0,0,0-.12-.45V36.17a6.81,6.81,0,0,0-6.8-6.8H6.8A6.81,6.81,0,0,0,0,36.17v24a1,1,0,0,0,2,0V44.71H114.76a1,1,0,0,0,0-2H2V36.17a4.8,4.8,0,0,1,4.8-4.8H125.23a4.81,4.81,0,0,1,4.8,4.8v77H48a5.86,5.86,0,0,0-11.54,0H25.29a1,1,0,0,0,0,2H36.45a5.85,5.85,0,0,0,11.54,0h82v4.52a4.81,4.81,0,0,1-4.8,4.8H6.8a4.81,4.81,0,0,1-4.8-4.8v-45a1,1,0,0,0-2,0v45.05a6.81,6.81,0,0,0,6.8,6.8H125.23a6.81,6.81,0,0,0,6.8-6.8V114.6a1,1,0,0,0,.12-.46M42.22,118a3.87,3.87,0,1,1,3.87-3.87A3.87,3.87,0,0,1,42.22,118"/>
            <path class="cls-2"
                  d="M53.63,58a1,1,0,0,0-.78-1.84,24.88,24.88,0,0,0-.4,45.61,1,1,0,0,0,1.32-.51,1,1,0,0,0-.5-1.32A22.88,22.88,0,0,1,53.63,58"/>
            <path class="cls-2"
                  d="M34.48,59a1,1,0,0,0-1.39.24,34.33,34.33,0,0,0,0,39.64,1,1,0,0,0,.82.42,1,1,0,0,0,.57-.18,1,1,0,0,0,.24-1.4,32.34,32.34,0,0,1,0-37.33A1,1,0,0,0,34.48,59"/>
            <path class="cls-2"
                  d="M78.76,99.9a1,1,0,0,0-.5,1.32,1,1,0,0,0,.91.6,1,1,0,0,0,.41-.09,24.88,24.88,0,0,0-.4-45.61A1,1,0,1,0,78.39,58a22.88,22.88,0,0,1,.37,41.94"/>
            <path class="cls-2"
                  d="M40,15.78a1.09,1.09,0,0,0,.54.16,1,1,0,0,0,.84-.46,29.47,29.47,0,0,1,49.33-.27,1,1,0,0,0,1.38.28,1,1,0,0,0,.29-1.38,31.47,31.47,0,0,0-52.68.28,1,1,0,0,0,.3,1.39"/>
            <path class="cls-2"
                  d="M80.36,19.47A1,1,0,0,0,82,18.37a19.14,19.14,0,0,0-32,.17,1,1,0,0,0,.3,1.39,1.09,1.09,0,0,0,.54.16,1,1,0,0,0,.84-.46,17.14,17.14,0,0,1,28.69-.16"/>
            <path class="cls-2"
                  d="M66.05,19.55A12.1,12.1,0,0,0,55.86,25.1a1,1,0,0,0,.3,1.39,1,1,0,0,0,.54.16,1,1,0,0,0,.84-.46,10.11,10.11,0,0,1,16.95-.09A1,1,0,0,0,76.16,25a12.1,12.1,0,0,0-10.11-5.44"/>
            <path class="cls-2"
                  d="M97.54,99.11a1,1,0,0,0,.58.18,1,1,0,0,0,.82-.42,34.33,34.33,0,0,0,0-39.64,1,1,0,0,0-1.63,1.15,32.32,32.32,0,0,1,0,37.33,1,1,0,0,0,.24,1.4"/>
            <path class="cls-1" d="M43.89,114.08a1.67,1.67,0,1,1-1.67-1.67,1.67,1.67,0,0,1,1.67,1.67"/>
        </g>
    </g>
</svg>