<svg xmlns="http://www.w3.org/2000/svg" viewBox="0 0 28.11 28.15">
    <defs>
        <style>.cls-1,.cls-2{fill:#412c76;}.cls-1{fill-rule:evenodd;}</style>
    </defs>
    <title>whatsapp12</title>
    <g id="Layer_2" data-name="Layer 2">
        <g id="Layer_1-2" data-name="Layer 1">
            <path class="cls-1"
                  d="M20.76,16.53c-.36-.17-2-1-2.33-1.13s-.56-.17-.79.19a14.26,14.26,0,0,1-1.08,1.31c-.21.25-.41.27-.73.11a8.82,8.82,0,0,1-2.77-1.7A10.08,10.08,0,0,1,11.15,13a.54.54,0,0,1,.14-.73,3.89,3.89,0,0,0,.52-.59.44.44,0,0,0,.12-.15,3.11,3.11,0,0,0,.22-.4.54.54,0,0,0,0-.59c-.06-.17-.76-1.87-1-2.54s-.55-.69-1.12-.69a1.41,1.41,0,0,0-1.21.53,3.64,3.64,0,0,0-1.23,2.84,3.39,3.39,0,0,0,.21,1.14,7.57,7.57,0,0,0,1.2,2.37c.17.23,2.37,3.77,5.86,5.13s3.51.89,4.12.85a3.42,3.42,0,0,0,2.32-1.63,2.79,2.79,0,0,0,.19-1.62,2.07,2.07,0,0,0-.65-.37"/>
            <path class="cls-2"
                  d="M0,28.15l.61-1.91s1.25-3.91,1.8-5.57a13.77,13.77,0,1,1,5,5c-1.77.54-5.44,1.82-5.48,1.83Zm7.67-4.66.38.24A11.75,11.75,0,1,0,4.35,20l.25.4-.15.45c-.24.71-.85,2.61-1.33,4.08,1.4-.47,3.21-1.08,4.12-1.34Z"/>
        </g>
    </g>
</svg>