<svg xmlns="http://www.w3.org/2000/svg" width="23.961" height="23.961" viewBox="0 0 23.961 23.961">
    <defs>
        <symbol id="idea1" viewBox="0 0 132.03 123.48">
            <path fill="#fcb912" d="M72.65,115.35a8.13,8.13,0,0,1-16.26,0Z"/>
            <path fill="#fcb912"
                  d="M14.6,85.21a1,1,0,0,1-.4-1.91l13.54-6a1,1,0,0,1,1.32.52,1,1,0,0,1-.52,1.31L15,85.13a.92.92,0,0,1-.4.08"/>
            <path fill="#fcb912"
                  d="M27.13,49.19a1.15,1.15,0,0,1-.36-.07L13,43.76a1,1,0,0,1,.72-1.87L27.5,47.25a1,1,0,0,1,.57,1.3,1,1,0,0,1-.94.64"/>
            <path fill="#fcb912"
                  d="M117.26,84.82a1.14,1.14,0,0,1-.4-.08l-13.54-6a1,1,0,0,1-.51-1.32,1,1,0,0,1,1.32-.51l13.54,6a1,1,0,0,1-.41,1.91"/>
            <path fill="#fcb912"
                  d="M104.73,48.79a1,1,0,0,1-.36-1.93l13.79-5.36a1,1,0,0,1,.72,1.86l-13.79,5.36a.92.92,0,0,1-.36.07"/>
            <path fill="#fcb912"
                  d="M79.64,26.92a1.14,1.14,0,0,1-.4-.08,1,1,0,0,1-.51-1.32l6-13.54A1,1,0,0,1,86,11.47a1,1,0,0,1,.52,1.31l-6,13.54a1,1,0,0,1-.92.6"/>
            <path fill="#fcb912"
                  d="M49.57,25.91a1,1,0,0,1-.93-.63L43.28,11.49a1,1,0,0,1,1.86-.72l5.37,13.78a1,1,0,0,1-.57,1.3,1.19,1.19,0,0,1-.37.06"/>
            <path fill="currentColor"
                  d="M64.86,32.67C43.83,32.67,36,51,36,62.55c0,9.08,1.06,10.46,5.56,16.28,1.07,1.39,2.3,3,3.77,5,7.34,10.09,7.28,16.38,7.28,16.47a1,1,0,0,0,1,1H75.74a1,1,0,0,0,1-.9c0-.11,1.22-11.22,5.7-15.24C87.59,80.55,93.11,72,93.11,62.07c0-11.37-7.67-29.4-28.25-29.4m16.23,51c-4.29,3.86-5.84,12.76-6.23,15.63H54.54c-.23-2.29-1.45-8.23-7.6-16.68-1.49-2-2.78-3.72-3.81-5C38.77,72,38,71,38,62.55c0-10.78,7.29-27.88,26.87-27.88,19.12,0,26.25,16.81,26.25,27.4,0,9.31-5.18,17.28-10,21.64"/>
            <path fill="currentColor"
                  d="M99.13,81.18a5.92,5.92,0,0,1,3.05-8.07l9.32-3.86a1,1,0,0,0,.62-.92V56.05a1,1,0,0,0-.71-.95L102,52.24a5.92,5.92,0,0,1-3.76-7.87L102.42,34a1,1,0,0,0-.23-1.09l-8.42-8.18a1,1,0,0,0-1.16-.17l-8.8,4.53a5.92,5.92,0,0,1-8.3-3.32L72.11,16a1,1,0,0,0-.94-.67H57.69a1,1,0,0,0-1,.71l-2.6,8.72a5.93,5.93,0,0,1-8,3.76L37.38,24.8a1,1,0,0,0-1.12.24L27.6,34.18a1,1,0,0,0-.22,1l3.74,10.05A5.93,5.93,0,0,1,27.37,53l-9,2.85a1,1,0,0,0-.7,1V69.53a1,1,0,0,0,.64.93l9.6,3.76a5.91,5.91,0,0,1,3.15,8.12l-4.14,8.41A1,1,0,0,0,27.2,92l9.14,7.7a1,1,0,0,0,1.22,0l9.87-7a1,1,0,0,0-1.15-1.63L37,97.63l-8-6.7,3.8-7.71a7.9,7.9,0,0,0-4.22-10.86l-9-3.51V57.51L28,54.87a7.9,7.9,0,0,0,5-10.29l-3.51-9.47,7.76-8.19,8.13,3.45a7.92,7.92,0,0,0,10.67-5l2.39-8h12l3.18,9.13a7.91,7.91,0,0,0,11.09,4.44l8.17-4.21,7.42,7.22-3.9,9.71a7.9,7.9,0,0,0,5,10.52l8.68,2.64V67.66l-8.7,3.61a7.9,7.9,0,0,0-4.08,10.79l4.16,8.49L93.91,99l-8.66-6.65a1,1,0,0,0-1.4.18,1,1,0,0,0,.18,1.4l9.39,7.22a1,1,0,0,0,1.36-.12l8.66-9.63a1,1,0,0,0,.15-1.11Z"/>
            <path fill="currentColor" d="M52.69,105.79H75.36a1,1,0,0,0,0-2H52.69a1,1,0,0,0,0,2"/>
            <path fill="currentColor" d="M76.34,110.29H52.69a1,1,0,0,0,0,2H76.34a1,1,0,0,0,0-2"/>
            <path fill="currentColor"
                  d="M80.61,52.89A7.54,7.54,0,0,0,73.92,64a.47.47,0,0,0-.09.06l-4,4a1,1,0,0,0-.3.71V85.42a1,1,0,1,0,2,0V69.1l3.52-3.52a7.55,7.55,0,1,0,5.53-12.69m0,13.11a5.56,5.56,0,1,1,5.56-5.55A5.57,5.57,0,0,1,80.61,66"/>
            <path fill="currentColor"
                  d="M71.61,48.19a6.7,6.7,0,1,0-7.83,6.59V76.43a1,1,0,0,0,2,0V54.82a6.71,6.71,0,0,0,5.83-6.63m-11.4,0a4.7,4.7,0,1,1,4.7,4.7,4.71,4.71,0,0,1-4.7-4.7"/>
            <path fill="currentColor"
                  d="M55.69,69.13a6.56,6.56,0,1,0-1.24,1.59l4.67,4.67V91.07a1,1,0,0,0,2,0V75a1,1,0,0,0-.29-.71ZM50,70.5A4.53,4.53,0,1,1,54.51,66,4.53,4.53,0,0,1,50,70.5"/>
            <path fill="currentColor"
                  d="M57.35,55.2a5.67,5.67,0,1,0-5.14,3.28,5.64,5.64,0,0,0,4-1.62l4,4v10a1,1,0,0,0,2,0V60.45a1,1,0,0,0-.3-.71Zm-7.75.2a3.69,3.69,0,1,1,5.22,0,3.69,3.69,0,0,1-5.22,0"/>
            <path fill="currentColor"
                  d="M125.23,0H6.8A6.81,6.81,0,0,0,0,6.8V90.29a6.81,6.81,0,0,0,6.8,6.8H20.24a1,1,0,0,0,0-2H6.8A4.81,4.81,0,0,1,2,90.29V6.8A4.8,4.8,0,0,1,6.8,2H125.23A4.81,4.81,0,0,1,130,6.8V90.29a4.81,4.81,0,0,1-4.8,4.8H110.49a1,1,0,1,0,0,2h14.74a6.81,6.81,0,0,0,6.8-6.8V6.8a6.81,6.81,0,0,0-6.8-6.8"/>

        </symbol>

        <symbol id="idea" viewBox="0 0 200 200" fill="none">
            <g clip-path="url(#clip0_1_25)">
                <mask id="mask0_1_25" style="mask-type:luminance" maskUnits="userSpaceOnUse" x="18" y="42" width="164" height="153">
                    <path d="M182 42H18V195H182V42Z" fill="white"/>
                </mask>
                <g mask="url(#mask0_1_25)">
                    <path d="M108.242 184.926C108.242 187.598 107.178 190.16 105.284 192.049C103.39 193.939 100.821 195 98.143 195C95.4647 195 92.896 193.939 91.0022 192.049C89.1083 190.16 88.0444 187.598 88.0444 184.926H108.242Z" fill="#FCB912"/>
                    <path d="M36.1353 147.581C35.8531 147.577 35.5808 147.477 35.3631 147.298C35.1453 147.119 34.9952 146.871 34.9374 146.596C34.8795 146.32 34.9174 146.034 35.0449 145.782C35.1723 145.531 35.3816 145.331 35.6384 145.214L52.457 137.78C52.607 137.714 52.7685 137.679 52.9323 137.676C53.096 137.673 53.2588 137.702 53.4112 137.762C53.5636 137.822 53.7026 137.911 53.8202 138.025C53.9379 138.138 54.0318 138.274 54.0966 138.424C54.2256 138.725 54.2301 139.064 54.1091 139.369C53.9881 139.673 53.7514 139.917 53.4507 140.047L36.6321 147.482C36.476 147.551 36.3062 147.585 36.1353 147.581Z" fill="#FCB912"/>
                    <path d="M51.6993 102.95C51.5466 102.945 51.3956 102.916 51.2521 102.863L34.1478 96.2216C33.8398 96.1033 33.5915 95.8678 33.4576 95.5668C33.3236 95.2659 33.315 94.9242 33.4336 94.617C33.5522 94.3097 33.7883 94.062 34.09 93.9284C34.3916 93.7948 34.7342 93.7862 35.0422 93.9045L52.1589 100.546C52.4355 100.646 52.6676 100.841 52.8138 101.095C52.96 101.35 53.0107 101.648 52.957 101.937C52.9034 102.226 52.7487 102.486 52.5206 102.671C52.2926 102.857 52.0059 102.955 51.7117 102.95" fill="#FCB912"/>
                    <path d="M163.654 147.098C163.482 147.095 163.313 147.057 163.157 146.986L146.338 139.552C146.189 139.486 146.054 139.391 145.941 139.274C145.829 139.156 145.74 139.017 145.681 138.865C145.623 138.713 145.594 138.551 145.598 138.388C145.602 138.225 145.638 138.065 145.705 137.916C145.771 137.767 145.865 137.633 145.984 137.52C146.102 137.408 146.241 137.32 146.393 137.261C146.545 137.202 146.708 137.174 146.871 137.178C147.034 137.182 147.195 137.218 147.344 137.284L164.15 144.719C164.415 144.831 164.632 145.031 164.765 145.285C164.898 145.539 164.938 145.831 164.88 146.111C164.821 146.392 164.667 146.643 164.443 146.823C164.22 147.003 163.941 147.1 163.654 147.098Z" fill="#FCB912"/>
                    <path d="M148.09 102.454C147.801 102.452 147.523 102.35 147.302 102.165C147.08 101.981 146.931 101.725 146.878 101.442C146.825 101.16 146.872 100.867 147.012 100.616C147.151 100.364 147.374 100.168 147.642 100.063L164.772 93.4213C165.071 93.3303 165.395 93.3559 165.677 93.4928C165.958 93.6297 166.178 93.8679 166.291 94.1595C166.404 94.4511 166.403 94.7746 166.287 95.0652C166.171 95.3557 165.949 95.5917 165.666 95.726L148.537 102.367C148.395 102.426 148.243 102.455 148.09 102.454Z" fill="#FCB912"/>
                    <path d="M116.924 75.3557C116.754 75.3527 116.586 75.3191 116.427 75.2566C116.278 75.1907 116.143 75.0962 116.03 74.9784C115.918 74.8605 115.83 74.7217 115.771 74.5698C115.712 74.4179 115.684 74.2559 115.688 74.0931C115.692 73.9303 115.728 73.7699 115.794 73.621L123.247 56.844C123.38 56.5584 123.617 56.3341 123.91 56.2167C124.203 56.0993 124.53 56.0977 124.824 56.2121C125.125 56.3428 125.362 56.5868 125.483 56.8909C125.604 57.195 125.599 57.5345 125.47 57.8353L118.017 74.6122C117.92 74.8339 117.76 75.0224 117.557 75.1545C117.354 75.2866 117.117 75.3565 116.874 75.3557" fill="#FCB912"/>
                    <path d="M79.573 74.1042C79.3242 74.1045 79.0811 74.0302 78.8751 73.891C78.6692 73.7518 78.5098 73.5542 78.4178 73.3236L71.7599 56.2369C71.6422 55.9312 71.6507 55.5915 71.7833 55.292C71.916 54.9925 72.1621 54.7575 72.4679 54.6385C72.7744 54.5211 73.1149 54.5295 73.4152 54.6619C73.7154 54.7942 73.9509 55.0397 74.0703 55.3447L80.7406 72.4191C80.8008 72.5712 80.8302 72.7336 80.8271 72.8971C80.824 73.0606 80.7886 73.2218 80.7228 73.3715C80.657 73.5213 80.5621 73.6565 80.4436 73.7695C80.3252 73.8825 80.1855 73.971 80.0326 74.0299C79.8843 74.0787 79.7291 74.1038 79.573 74.1042Z" fill="#FCB912"/>
                    <path d="M98.5653 82.4803C72.4307 82.4803 62.7171 105.192 62.7171 119.504C62.7171 130.754 64.0338 132.464 69.611 139.676C70.9525 141.398 72.4803 143.393 74.3063 145.871C83.4236 158.373 83.3491 166.167 83.3491 166.278C83.3491 166.607 83.4799 166.922 83.7129 167.155C83.9458 167.387 84.2618 167.517 84.5912 167.517H112.08C112.389 167.519 112.687 167.406 112.917 167.199C113.147 166.993 113.291 166.709 113.322 166.402C113.322 166.266 114.837 152.5 120.39 147.519C126.799 141.807 133.656 131.213 133.656 118.909C133.656 104.821 124.129 82.4803 98.5653 82.4803ZM118.725 145.673C113.396 150.456 111.471 161.483 110.987 165.039H85.7464C85.4483 162.202 83.9329 154.842 76.3061 144.372C74.4429 141.894 72.853 139.762 71.5736 138.176C66.1578 131.213 65.2014 129.974 65.2014 119.504C65.2014 106.146 74.2566 84.9585 98.5777 84.9585C122.327 84.9585 131.184 105.787 131.184 118.909C131.184 130.445 124.75 140.32 118.763 145.722" fill="currentColor"/>
                    <path d="M141.134 142.587C140.691 141.689 140.438 140.71 140.391 139.71C140.344 138.71 140.504 137.712 140.86 136.776C141.208 135.835 141.749 134.976 142.448 134.255C143.148 133.534 143.99 132.966 144.922 132.588L156.499 127.805C156.726 127.712 156.92 127.555 157.057 127.352C157.194 127.149 157.268 126.91 157.269 126.665V111.45C157.267 111.185 157.181 110.928 157.022 110.717C156.863 110.505 156.641 110.349 156.387 110.273L144.698 106.729C143.725 106.432 142.823 105.936 142.051 105.273C141.28 104.609 140.654 103.794 140.215 102.877C139.776 101.96 139.533 100.962 139.501 99.9467C139.468 98.9312 139.648 97.92 140.028 96.9774L145.22 84.1283C145.312 83.9003 145.334 83.6501 145.283 83.4096C145.232 83.1691 145.111 82.9492 144.934 82.7777L134.476 72.6421C134.288 72.4602 134.048 72.3419 133.789 72.3041C133.531 72.2663 133.267 72.3108 133.035 72.4315L122.104 78.0445C121.168 78.5249 120.139 78.7992 119.088 78.8489C118.036 78.8986 116.986 78.7225 116.009 78.3324C115.031 77.9424 114.149 77.3476 113.422 76.5883C112.695 75.8289 112.14 74.9226 111.794 73.9308L107.571 61.8251C107.482 61.5709 107.313 61.3524 107.089 61.2027C106.865 61.0529 106.598 60.98 106.329 60.9949H89.6592C89.3836 60.9831 89.1119 61.0632 88.887 61.2225C88.6621 61.3818 88.4968 61.6112 88.417 61.8746L85.175 72.6793C84.88 73.6709 84.3781 74.589 83.7022 75.3734C83.0264 76.1578 82.1918 76.7908 81.2534 77.2307C80.315 77.6707 79.2939 77.9077 78.2572 77.9262C77.2205 77.9448 76.1915 77.7444 75.2379 77.3382L64.4313 72.7289C64.1968 72.6303 63.9376 72.606 63.6888 72.6592C63.4399 72.7124 63.2135 72.8405 63.0401 73.0262L52.2831 84.3513C52.1299 84.5141 52.0236 84.7152 51.9755 84.9333C51.9274 85.1514 51.9392 85.3784 52.0099 85.5904L56.6555 98.043C57.0065 98.9716 57.1622 99.9623 57.1131 100.953C57.0639 101.945 56.8109 102.915 56.3698 103.805C55.9295 104.686 55.3153 105.47 54.564 106.108C53.8126 106.747 52.9396 107.228 51.9974 107.522L40.8182 111.053C40.5564 111.135 40.3292 111.301 40.1719 111.525C40.0146 111.749 39.9361 112.019 39.9487 112.292V128.152C39.9494 128.402 40.0257 128.645 40.1675 128.851C40.3094 129.057 40.5102 129.215 40.7436 129.305L52.6682 133.964C53.6157 134.333 54.4759 134.894 55.1944 135.613C55.9128 136.331 56.4738 137.19 56.8417 138.136C57.2096 139.082 57.3764 140.094 57.3315 141.108C57.2866 142.122 57.031 143.115 56.5809 144.025L51.4385 154.445C51.3056 154.703 51.2676 155 51.3311 155.283C51.3947 155.566 51.5557 155.817 51.7863 155.994L63.1394 165.535C63.3566 165.702 63.6231 165.792 63.8972 165.792C64.1713 165.792 64.4377 165.702 64.6549 165.535L76.9148 156.862C77.1577 156.663 77.3163 156.38 77.3586 156.07C77.4008 155.759 77.3237 155.445 77.1427 155.189C76.9617 154.933 76.6902 154.755 76.3829 154.69C76.0756 154.626 75.7552 154.68 75.4863 154.842L63.9593 162.97L54.0221 154.668L58.7423 145.115C59.341 143.897 59.68 142.568 59.7379 141.213C59.7958 139.858 59.5714 138.505 59.0789 137.241C58.5863 135.976 57.8362 134.827 56.8761 133.867C55.9159 132.906 54.7665 132.154 53.5004 131.659L42.3211 127.31V113.259L52.78 109.988C54.0459 109.585 55.2167 108.93 56.2212 108.062C57.2258 107.194 58.0432 106.132 58.6239 104.94C59.2047 103.748 59.5366 102.45 59.5997 101.126C59.6627 99.8023 59.4555 98.4794 58.9907 97.2376L54.6308 85.5036L64.2574 75.3557L74.3684 79.6305C75.6396 80.1676 77.0099 80.4318 78.3902 80.406C79.7705 80.3801 81.1299 80.0648 82.3799 79.4804C83.63 78.8961 84.7428 78.0558 85.646 77.0143C86.5491 75.9728 87.2224 74.7533 87.6221 73.4351L90.5908 63.5226H105.496L109.434 74.8353C109.897 76.1614 110.64 77.373 111.612 78.3882C112.585 79.4034 113.764 80.1986 115.071 80.7201C116.378 81.2416 117.782 81.4773 119.188 81.4111C120.594 81.345 121.97 80.9786 123.222 80.3367L133.37 75.1203L142.587 84.0663L137.742 96.0605C137.235 97.3186 136.995 98.6679 137.036 100.023C137.078 101.379 137.401 102.711 137.984 103.936C138.568 105.16 139.399 106.251 140.427 107.139C141.454 108.027 142.655 108.693 143.953 109.095L154.735 112.367V125.835L143.916 130.308C142.676 130.821 141.555 131.582 140.622 132.545C139.688 133.507 138.962 134.649 138.488 135.902C138.015 137.155 137.803 138.491 137.867 139.828C137.931 141.166 138.269 142.476 138.86 143.678L144.028 154.198L134.65 164.668L123.893 156.428C123.635 156.234 123.311 156.149 122.991 156.189C122.671 156.229 122.379 156.392 122.177 156.644C121.975 156.895 121.88 157.215 121.91 157.535C121.94 157.856 122.095 158.152 122.34 158.361L134.004 167.307C134.22 167.475 134.487 167.566 134.761 167.567C134.935 167.567 135.106 167.53 135.264 167.46C135.423 167.389 135.564 167.287 135.681 167.158L146.45 155.226C146.615 155.041 146.721 154.812 146.754 154.567C146.787 154.322 146.746 154.072 146.636 153.851L141.134 142.587Z" fill="currentColor"/>
                    <path d="M83.4484 173.081H111.608C111.937 173.081 112.253 172.95 112.486 172.718C112.719 172.486 112.85 172.17 112.85 171.842C112.85 171.513 112.719 171.198 112.486 170.966C112.253 170.733 111.937 170.603 111.608 170.603H83.4484C83.119 170.603 82.8031 170.733 82.5701 170.966C82.3372 171.198 82.2063 171.513 82.2063 171.842C82.2063 172.17 82.3372 172.486 82.5701 172.718C82.8031 172.95 83.119 173.081 83.4484 173.081Z" fill="currentColor"/>
                    <path d="M112.825 178.657H83.4484C83.119 178.657 82.8031 178.787 82.5701 179.02C82.3372 179.252 82.2063 179.567 82.2063 179.896C82.2063 180.224 82.3372 180.54 82.5701 180.772C82.8031 181.004 83.119 181.135 83.4484 181.135H112.825C113.155 181.135 113.47 181.004 113.703 180.772C113.936 180.54 114.067 180.224 114.067 179.896C114.067 179.567 113.936 179.252 113.703 179.02C113.47 178.787 113.155 178.657 112.825 178.657Z" fill="currentColor"/>
                    <path d="M118.129 107.534C116.504 107.524 114.904 107.935 113.487 108.728C112.069 109.521 110.883 110.668 110.045 112.057C109.207 113.446 108.745 115.028 108.705 116.649C108.666 118.269 109.05 119.872 109.819 121.3C109.779 121.321 109.742 121.346 109.707 121.375L104.739 126.331C104.621 126.446 104.528 126.583 104.464 126.734C104.4 126.885 104.367 127.047 104.366 127.211V147.841C104.366 148.17 104.497 148.485 104.73 148.717C104.963 148.95 105.279 149.08 105.608 149.08C105.938 149.08 106.254 148.95 106.487 148.717C106.72 148.485 106.85 148.17 106.85 147.841V127.62L111.223 123.258C112.283 124.395 113.61 125.252 115.084 125.75C116.559 126.248 118.134 126.372 119.669 126.111C121.203 125.85 122.649 125.212 123.874 124.254C125.1 123.297 126.067 122.05 126.689 120.626C127.311 119.203 127.568 117.647 127.437 116.1C127.305 114.552 126.79 113.062 125.937 111.763C125.084 110.464 123.92 109.397 122.55 108.659C121.181 107.921 119.649 107.534 118.092 107.534M118.092 123.778C116.725 123.778 115.39 123.374 114.254 122.617C113.118 121.859 112.232 120.782 111.71 119.523C111.188 118.263 111.052 116.877 111.319 115.541C111.587 114.204 112.246 112.976 113.213 112.013C114.18 111.05 115.412 110.395 116.752 110.131C118.093 109.866 119.482 110.005 120.743 110.528C122.005 111.051 123.083 111.936 123.84 113.071C124.598 114.205 125.001 115.539 124.998 116.902C124.992 118.719 124.267 120.461 122.981 121.748C121.694 123.036 119.951 123.765 118.129 123.778" fill="currentColor"/>
                    <path d="M106.95 101.711C106.953 100.128 106.503 98.5771 105.652 97.2411C104.801 95.9052 103.585 94.8397 102.147 94.1704C100.709 93.501 99.1093 93.2557 97.5363 93.4632C95.9633 93.6707 94.4825 94.3225 93.2685 95.3417C92.0545 96.3609 91.1579 97.7051 90.6844 99.2157C90.2108 100.726 90.1801 102.341 90.5958 103.868C91.0115 105.396 91.8563 106.773 93.0306 107.837C94.2049 108.902 95.6598 109.609 97.2238 109.876V136.702C97.2238 137.031 97.3547 137.346 97.5876 137.578C97.8206 137.81 98.1365 137.941 98.466 137.941C98.7954 137.941 99.1113 137.81 99.3443 137.578C99.5772 137.346 99.7081 137.031 99.7081 136.702V109.926C101.707 109.662 103.543 108.684 104.874 107.174C106.206 105.663 106.943 103.722 106.95 101.711ZM92.7894 101.711C92.7894 100.559 93.1318 99.4329 93.7733 98.4752C94.4148 97.5175 95.3265 96.7711 96.3933 96.3303C97.4601 95.8895 98.6339 95.7742 99.7664 95.9989C100.899 96.2236 101.939 96.7783 102.756 97.5927C103.572 98.4072 104.128 99.4448 104.353 100.575C104.579 101.704 104.463 102.875 104.021 103.939C103.579 105.003 102.831 105.913 101.871 106.553C100.911 107.193 99.7821 107.534 98.6275 107.534C97.0801 107.531 95.5971 106.916 94.5029 105.825C93.4088 104.734 92.7927 103.254 92.7894 101.711Z" fill="currentColor"/>
                    <path d="M87.1749 127.657C88.1733 125.868 88.4583 123.769 87.9729 121.78C87.4875 119.791 86.2674 118.058 84.5566 116.927C82.8457 115.796 80.77 115.351 78.7444 115.68C76.7187 116.01 74.8923 117.089 73.6302 118.704C72.368 120.318 71.7631 122.348 71.9362 124.388C72.1094 126.428 73.0479 128.328 74.5643 129.708C76.0806 131.087 78.063 131.846 80.1153 131.831C82.1677 131.816 84.1387 131.029 85.6346 129.627L91.4354 135.413V154.842C91.4354 155.17 91.5663 155.486 91.7992 155.718C92.0322 155.95 92.3481 156.081 92.6776 156.081C93.007 156.081 93.323 155.95 93.5559 155.718C93.7888 155.486 93.9197 155.17 93.9197 154.842V134.93C93.9207 134.767 93.8893 134.605 93.8275 134.454C93.7657 134.303 93.6746 134.166 93.5595 134.05L87.1749 127.657ZM80.1071 129.354C78.9911 129.362 77.898 129.038 76.967 128.424C76.036 127.81 75.309 126.934 74.8785 125.906C74.448 124.879 74.3334 123.748 74.5494 122.655C74.7653 121.563 75.302 120.56 76.0911 119.772C76.8803 118.985 77.8863 118.45 78.9813 118.234C80.0763 118.019 81.2107 118.133 82.2404 118.563C83.2701 118.992 84.1485 119.717 84.764 120.646C85.3794 121.575 85.7041 122.665 85.6967 123.778C85.687 125.254 85.0949 126.667 84.0488 127.71C83.0026 128.754 81.5865 129.344 80.1071 129.354Z" fill="currentColor"/>
                    <path d="M89.2244 110.396C89.9468 108.819 90.0517 107.029 89.5186 105.378C88.9856 103.727 87.853 102.334 86.3433 101.473C84.8336 100.613 83.0559 100.346 81.3593 100.726C79.6627 101.106 78.1698 102.105 77.1738 103.527C76.1778 104.949 75.7507 106.691 75.9763 108.411C76.2019 110.13 77.0639 111.704 78.3931 112.822C79.7223 113.941 81.4226 114.523 83.16 114.454C84.8975 114.386 86.5466 113.672 87.7835 112.453L92.7521 117.41V129.8C92.7521 130.129 92.883 130.444 93.1159 130.676C93.3488 130.909 93.6648 131.039 93.9942 131.039C94.3237 131.039 94.6396 130.909 94.8726 130.676C95.1055 130.444 95.2364 130.129 95.2364 129.8V116.902C95.2357 116.738 95.2024 116.575 95.1384 116.424C95.0745 116.273 94.9811 116.137 94.8637 116.022L89.2244 110.396ZM79.6102 110.644C78.9695 110.005 78.5332 109.19 78.3566 108.303C78.1799 107.416 78.2709 106.497 78.6179 105.662C78.9649 104.827 79.5523 104.113 80.306 103.61C81.0597 103.108 81.9458 102.84 82.8522 102.84C83.7586 102.84 84.6447 103.108 85.3984 103.61C86.1521 104.113 86.7396 104.827 87.0866 105.662C87.4336 106.497 87.5245 107.416 87.3478 108.303C87.1712 109.19 86.7349 110.005 86.0942 110.644C85.6686 111.069 85.1631 111.406 84.6069 111.636C84.0506 111.866 83.4544 111.984 82.8522 111.984C82.2501 111.984 81.6538 111.866 81.0976 111.636C80.5413 111.406 80.0359 111.069 79.6102 110.644Z" fill="currentColor"/>
                    <path d="M173.553 42H26.4466C24.2074 42.0033 22.0609 42.892 20.4776 44.4714C18.8942 46.0508 18.0033 48.192 18 50.4257V153.875C18.0033 156.109 18.8942 158.25 20.4776 159.83C22.0609 161.409 24.2074 162.298 26.4466 162.301H43.141C43.4704 162.301 43.7863 162.17 44.0193 161.938C44.2522 161.706 44.3831 161.391 44.3831 161.062C44.3831 160.733 44.2522 160.418 44.0193 160.186C43.7863 159.953 43.4704 159.823 43.141 159.823H26.4466C24.8663 159.82 23.3517 159.192 22.2342 158.077C21.1168 156.963 20.4876 155.452 20.4843 153.875V50.4257C20.4843 48.8483 21.1125 47.3355 22.2306 46.2201C23.3487 45.1047 24.8653 44.4781 26.4466 44.4781H173.553C175.127 44.4912 176.632 45.1232 177.742 46.2368C178.851 47.3504 179.475 48.8557 179.478 50.4257V153.875C179.475 155.452 178.846 156.963 177.729 158.077C176.611 159.192 175.096 159.82 173.516 159.823H155.244C154.915 159.823 154.599 159.953 154.366 160.186C154.133 160.418 154.002 160.733 154.002 161.062C154.002 161.391 154.133 161.706 154.366 161.938C154.599 162.17 154.915 162.301 155.244 162.301H173.553C175.793 162.298 177.939 161.409 179.522 159.83C181.106 158.25 181.997 156.109 182 153.875V50.4257C181.997 48.192 181.106 46.0508 179.522 44.4714C177.939 42.892 175.793 42.0033 173.553 42Z" fill="currentColor"/>
                </g>
            </g>
            <defs>
                <clipPath id="clip0_1_25">
                    <rect width="164" height="153" fill="white" transform="translate(18 42)"/>
                </clipPath>
            </defs>
        </symbol>



        <symbol id="content1" viewBox="0 0 161.31 123.17">
            <path fill="#fcb912"
                  d="M76.8,17.48V30.6A1.63,1.63,0,0,0,79.26,32l11.17-6.56a1.63,1.63,0,0,0,0-2.82L79.26,16.07a1.63,1.63,0,0,0-2.46,1.41"/>
            <path fill="#fcb912" d="M26.26,94.41a1.67,1.67,0,1,1-1.66-1.67,1.66,1.66,0,0,1,1.66,1.67"/>
            <path fill="currentColor"
                  d="M160.31,48.24H146.86V16.43a6.79,6.79,0,0,0-6.79-6.79h-31.4V1a1,1,0,0,0-2,0V43a3.06,3.06,0,0,1-3,3h-38a3.06,3.06,0,0,1-3-3v-38a3.06,3.06,0,0,1,3-3H97.2a1,1,0,0,0,0-2H65.64a5.06,5.06,0,0,0-5,5.05V9.64H21.64a6.8,6.8,0,0,0-6.8,6.79v23.3H1a1,1,0,0,0-1,1V86.8a1,1,0,0,0,1,1H14.84V99.92a6.81,6.81,0,0,0,6.8,6.8h48L55.21,121.17H44.83a1,1,0,0,0,0,2h68.53a1,1,0,0,0,0-2H103.22L87.07,105a1,1,0,1,0-1.42,1.41l14.74,14.74H58l14.45-14.45H80a1,1,0,0,0,0-2H21.64a4.8,4.8,0,0,1-4.8-4.8V87.8H47.08a1,1,0,0,0,1-1V40.73a1,1,0,0,0-1-1H16.84V16.43a4.8,4.8,0,0,1,4.8-4.79h39V26.19H23.06a1,1,0,0,0,0,2H60.59V43a5.06,5.06,0,0,0,5,5h38a5.06,5.06,0,0,0,5-5V28.19h36.19V48.24H116.58a1,1,0,0,0-1,1V81.3a1,1,0,0,0,1,1h28.28V93.41H32.11a1,1,0,0,0,0,2H144.86v4.51a4.8,4.8,0,0,1-4.79,4.8H96.65a1,1,0,0,0,0,2h43.42a6.8,6.8,0,0,0,6.79-6.8V94.86a.84.84,0,0,0,0-.9V82.3h13.45a1,1,0,0,0,1-1V49.24a1,1,0,0,0-1-1M46.08,85.8H2V41.73H46.08Zm62.59-59.61V11.64h31.4a4.8,4.8,0,0,1,4.79,4.79v9.76Zm50.64,24.05V74.59L148.7,64a4.21,4.21,0,0,0-5.93,0l-8.35,8.35-5.95-6a4.22,4.22,0,0,0-5.94,0l-5,5V50.24ZM117.58,80.3V74.14l0,0L124,67.79a2.18,2.18,0,0,1,3.1,0l6,5.95L131,75.8a1,1,0,0,0,0,1.41,1,1,0,0,0,1.42,0L144.18,65.4a2.2,2.2,0,0,1,3.11,0l12,12V80.3Z"/>
            <path fill="currentColor"
                  d="M65.43,66.27h32a1,1,0,0,0,1-1V53.94a1,1,0,0,0-1-1h-32a1,1,0,0,0-1,1V65.27a1,1,0,0,0,1,1m1-11.33h30v9.33h-30Z"/>
            <path fill="currentColor"
                  d="M64.43,83.6a1,1,0,0,0,1,1h32a1,1,0,0,0,1-1V72.28a1,1,0,0,0-1-1h-32a1,1,0,0,0-1,1Zm2-10.32h30V82.6h-30Z"/>
            <path fill="currentColor"
                  d="M134.42,65.47a5.87,5.87,0,1,0-5.86-5.87,5.87,5.87,0,0,0,5.86,5.87m0-9.73a3.87,3.87,0,1,1-3.86,3.86,3.86,3.86,0,0,1,3.86-3.86"/>
            <path fill="currentColor" d="M24.6,20.15a1.67,1.67,0,1,0-1.67-1.67,1.66,1.66,0,0,0,1.67,1.67"/>
            <path fill="currentColor" d="M31.84,18.48a1.67,1.67,0,1,0-1.67,1.67,1.67,1.67,0,0,0,1.67-1.67"/>
            <path fill="currentColor" d="M37.41,18.48a1.67,1.67,0,1,0-1.66,1.67,1.66,1.66,0,0,0,1.66-1.67"/>
            <path fill="currentColor" d="M102.8,2.67a1.2,1.2,0,1,0-1.19-1.2,1.2,1.2,0,0,0,1.19,1.2"/>
            <path fill="currentColor" d="M7.25,60.53H38.88a1,1,0,0,0,0-2H7.25a1,1,0,0,0,0,2"/>
            <path fill="currentColor" d="M7.25,52h20.3a1,1,0,1,0,0-2H7.25a1,1,0,0,0,0,2"/>
            <path fill="currentColor" d="M33.41,52h5.47a1,1,0,0,0,0-2H33.41a1,1,0,0,0,0,2"/>
            <path fill="currentColor" d="M7.25,77.52H38.88a1,1,0,1,0,0-2H7.25a1,1,0,0,0,0,2"/>
            <path fill="currentColor" d="M38.88,67H18.57a1,1,0,0,0,0,2H38.88a1,1,0,1,0,0-2"/>
            <path fill="currentColor" d="M7.25,69h5.47a1,1,0,0,0,0-2H7.25a1,1,0,0,0,0,2"/>
        </symbol>
        <symbol id="content" viewBox="0 0 200 200" fill="none">
            <mask id="mask0_1_26" style="mask-type:luminance" maskUnits="userSpaceOnUse" x="1" y="30" width="198" height="152">
                <path d="M199 30H1V181.47H199V30Z" fill="white"/>
            </mask>
            <g mask="url(#mask0_1_26)">
                <path d="M95.2682 51.4963V67.6308C95.2688 67.9842 95.3626 68.3311 95.5402 68.6364C95.7178 68.9417 95.9728 69.1946 96.2793 69.3694C96.5859 69.5442 96.9331 69.6347 97.2858 69.6317C97.6385 69.6287 97.9841 69.5324 98.2877 69.3524L111.998 61.2852C112.302 61.109 112.553 60.8561 112.728 60.5518C112.903 60.2474 112.995 59.9024 112.995 59.5512C112.995 59.2 112.903 58.855 112.728 58.5507C112.553 58.2464 112.302 57.9935 111.998 57.8173L98.2877 49.7623C97.9832 49.5818 97.6365 49.4855 97.2827 49.483C96.929 49.4806 96.5809 49.5721 96.274 49.7484C95.9671 49.9246 95.7123 50.1792 95.5356 50.4863C95.3589 50.7934 95.2666 51.1418 95.2682 51.4963Z" fill="#FCB912"/>
                <path d="M33.2328 146.102C33.2328 146.509 33.1123 146.906 32.8865 147.244C32.6607 147.582 32.3398 147.845 31.9646 148.001C31.5893 148.156 31.1765 148.196 30.7786 148.115C30.3806 148.035 30.0154 147.838 29.7292 147.55C29.443 147.261 29.2488 146.894 29.1711 146.495C29.0933 146.096 29.1357 145.683 29.2927 145.308C29.4498 144.932 29.7144 144.613 30.0531 144.388C30.3918 144.164 30.7893 144.046 31.1953 144.048C31.4639 144.048 31.7298 144.101 31.9779 144.205C32.2259 144.308 32.451 144.46 32.6404 144.651C32.8298 144.841 32.9796 145.068 33.0813 145.317C33.1829 145.566 33.2345 145.833 33.2328 146.102Z" fill="#FCB912"/>
                <path d="M197.773 89.3238H181.276V50.205C181.272 47.9882 180.392 45.8631 178.827 44.2955C177.263 42.728 175.142 41.8459 172.929 41.8426H134.387V31.2298C134.387 30.9036 134.258 30.5908 134.028 30.3602C133.797 30.1296 133.485 30 133.16 30C132.834 30 132.522 30.1296 132.292 30.3602C132.061 30.5908 131.932 30.9036 131.932 31.2298V82.8798C131.932 83.8583 131.544 84.7967 130.854 85.4886C130.163 86.1804 129.226 86.5691 128.25 86.5691H81.6067C80.63 86.5691 79.6934 86.1804 79.0028 85.4886C78.3123 84.7967 77.9243 83.8583 77.9243 82.8798V36.1488C77.9432 35.1763 78.3372 34.2488 79.0237 33.561C79.7102 32.8732 80.6359 32.4784 81.6067 32.4595H120.308C120.634 32.4595 120.946 32.33 121.176 32.0993C121.406 31.8687 121.536 31.5559 121.536 31.2298C121.536 30.9036 121.406 30.5908 121.176 30.3602C120.946 30.1296 120.634 30 120.308 30H81.5698C79.9375 30.0194 78.3785 30.6819 77.2299 31.8441C76.0814 33.0063 75.4357 34.5748 75.4326 36.2103V41.8426H27.562C25.3493 41.8459 23.2282 42.728 21.6636 44.2955C20.099 45.8631 19.2186 47.9882 19.2154 50.205V78.8462H2.22745C1.90191 78.8462 1.5897 78.9758 1.35951 79.2064C1.12932 79.437 1 79.7498 1 80.076L1 136.743C1 137.07 1.12932 137.382 1.35951 137.613C1.5897 137.844 1.90191 137.973 2.22745 137.973H19.2154V152.878C19.2186 155.095 20.099 157.22 21.6636 158.788C23.2282 160.355 25.3493 161.237 27.562 161.24H86.4796L68.7675 179.01H56.0266C55.7011 179.01 55.3888 179.14 55.1587 179.371C54.9285 179.601 54.7991 179.914 54.7991 180.24C54.7991 180.566 54.9285 180.879 55.1587 181.11C55.3888 181.34 55.7011 181.47 56.0266 181.47H140.144C140.469 181.47 140.782 181.34 141.012 181.11C141.242 180.879 141.371 180.566 141.371 180.24C141.371 179.914 141.242 179.601 141.012 179.371C140.782 179.14 140.469 179.01 140.144 179.01H127.697L107.874 159.125C107.76 159.011 107.624 158.92 107.474 158.858C107.325 158.795 107.164 158.764 107.003 158.764C106.841 158.764 106.68 158.795 106.531 158.858C106.381 158.92 106.246 159.011 106.131 159.125C106.017 159.24 105.926 159.376 105.864 159.526C105.802 159.676 105.77 159.836 105.77 159.998C105.77 160.16 105.802 160.321 105.864 160.471C105.926 160.621 106.017 160.757 106.131 160.871L124.224 178.998H72.1921L89.9165 161.228H99.196C99.5216 161.228 99.8338 161.099 100.064 160.868C100.294 160.637 100.423 160.324 100.423 159.998C100.423 159.672 100.294 159.359 100.064 159.129C99.8338 158.898 99.5216 158.769 99.196 158.769H27.562C25.9994 158.769 24.5008 158.147 23.3959 157.04C22.291 155.933 21.6703 154.431 21.6703 152.866V137.973H58.7884C59.1139 137.973 59.4261 137.844 59.6563 137.613C59.8865 137.382 60.0158 137.07 60.0158 136.743V80.076C60.0158 79.7498 59.8865 79.437 59.6563 79.2064C59.4261 78.9758 59.1139 78.8462 58.7884 78.8462H21.6703V50.205C21.6735 48.6405 22.2953 47.1409 23.3995 46.0347C24.5037 44.9284 26.0004 44.3054 27.562 44.3022H75.4326V62.2075H29.305C28.9795 62.2075 28.6673 62.3371 28.4371 62.5677C28.2069 62.7983 28.0776 63.1111 28.0776 63.4373C28.0776 63.7634 28.2069 64.0762 28.4371 64.3068C28.6673 64.5375 28.9795 64.667 29.305 64.667H75.3712V82.8798C75.3872 84.5056 76.0389 86.0603 77.1864 87.21C78.334 88.3597 79.8857 89.0126 81.5085 89.0287H128.152C129.774 89.0126 131.326 88.3597 132.474 87.21C133.621 86.0603 134.273 84.5056 134.289 82.8798V64.667H178.723V89.3238H144.096C143.771 89.3238 143.458 89.4534 143.228 89.684C142.998 89.9146 142.869 90.2274 142.869 90.5536V129.98C142.869 130.306 142.998 130.619 143.228 130.849C143.458 131.08 143.771 131.21 144.096 131.21H178.821V144.872H40.4134C40.0879 144.872 39.7757 145.002 39.5455 145.232C39.3153 145.463 39.186 145.776 39.186 146.102C39.186 146.428 39.3153 146.741 39.5455 146.972C39.7757 147.202 40.0879 147.332 40.4134 147.332H178.821V152.878C178.817 154.443 178.196 155.942 177.091 157.048C175.987 158.155 174.491 158.778 172.929 158.781H119.633C119.308 158.781 118.995 158.91 118.765 159.141C118.535 159.372 118.406 159.684 118.406 160.011C118.406 160.337 118.535 160.65 118.765 160.88C118.995 161.111 119.308 161.24 119.633 161.24H172.929C175.142 161.237 177.263 160.355 178.827 158.788C180.392 157.22 181.272 155.095 181.276 152.878V146.655C181.367 146.485 181.418 146.296 181.423 146.102C181.421 145.908 181.37 145.718 181.276 145.549V131.21H197.773C198.098 131.21 198.41 131.08 198.64 130.849C198.871 130.619 199 130.306 199 129.98V90.5536C199 90.2274 198.871 89.9146 198.64 89.684C198.41 89.4534 198.098 89.3238 197.773 89.3238ZM57.5609 135.514H3.4549V81.3057H57.5609V135.514ZM134.387 62.2075V44.3022H172.929C174.491 44.3054 175.987 44.9284 177.091 46.0347C178.196 47.1409 178.817 48.6405 178.821 50.205V62.2075H134.387ZM196.545 91.7833V121.728L183.522 108.705C182.556 107.74 181.247 107.198 179.882 107.198C178.518 107.198 177.209 107.74 176.243 108.705L165.994 118.973L158.691 111.595C157.722 110.629 156.411 110.087 155.045 110.087C153.679 110.087 152.368 110.629 151.399 111.595L145.262 117.682V91.7833H196.545ZM145.324 128.75V121.175L153.204 113.366C153.71 112.859 154.397 112.574 155.113 112.574C155.828 112.574 156.515 112.859 157.021 113.366L164.251 120.683L161.796 123.216C161.567 123.447 161.439 123.758 161.439 124.083C161.439 124.408 161.567 124.72 161.796 124.95C161.91 125.065 162.046 125.157 162.195 125.219C162.345 125.282 162.505 125.314 162.667 125.314C162.83 125.314 162.99 125.282 163.14 125.219C163.289 125.157 163.425 125.065 163.539 124.95L177.974 110.427C178.48 109.92 179.167 109.635 179.882 109.635C180.598 109.635 181.285 109.92 181.791 110.427L196.521 125.184V128.75H145.324Z" fill="currentColor"/>
                <path d="M81.3121 111.496H120.59C120.916 111.496 121.228 111.367 121.458 111.136C121.689 110.906 121.818 110.593 121.818 110.267V96.3335C121.818 96.0073 121.689 95.6945 121.458 95.4639C121.228 95.2333 120.916 95.1037 120.59 95.1037H81.3121C80.9865 95.1037 80.6743 95.2333 80.4441 95.4639C80.2139 95.6945 80.0846 96.0073 80.0846 96.3335V110.267C80.0846 110.593 80.2139 110.906 80.4441 111.136C80.6743 111.367 80.9865 111.496 81.3121 111.496ZM82.5395 97.5632H119.363V109.037H82.5395V97.5632Z" fill="currentColor"/>
                <path d="M80.0846 132.808C80.0846 133.134 80.2139 133.447 80.4441 133.678C80.6743 133.908 80.9865 134.038 81.3121 134.038H120.59C120.916 134.038 121.228 133.908 121.458 133.678C121.689 133.447 121.818 133.134 121.818 132.808V118.887C121.818 118.561 121.689 118.248 121.458 118.018C121.228 117.787 120.916 117.658 120.59 117.658H81.3121C80.9865 117.658 80.6743 117.787 80.4441 118.018C80.2139 118.248 80.0846 118.561 80.0846 118.887V132.808ZM82.5395 120.117H119.363V131.578H82.5395V120.117Z" fill="currentColor"/>
                <path d="M165.994 110.513C167.419 110.515 168.814 110.094 170 109.302C171.187 108.51 172.112 107.384 172.659 106.065C173.207 104.746 173.351 103.294 173.074 101.893C172.798 100.492 172.112 99.2047 171.105 98.1939C170.098 97.1831 168.814 96.4944 167.416 96.2148C166.018 95.9353 164.569 96.0775 163.252 96.6235C161.934 97.1695 160.808 98.0948 160.016 99.2821C159.224 100.47 158.801 101.866 158.801 103.294C158.801 105.206 159.558 107.041 160.907 108.394C162.256 109.747 164.085 110.509 165.994 110.513ZM165.994 98.547C166.934 98.5446 167.855 98.822 168.638 99.344C169.421 99.866 170.031 100.609 170.392 101.479C170.753 102.349 170.849 103.307 170.666 104.232C170.483 105.156 170.03 106.005 169.365 106.671C168.7 107.338 167.852 107.791 166.93 107.975C166.007 108.158 165.051 108.063 164.183 107.701C163.314 107.339 162.572 106.727 162.051 105.943C161.53 105.158 161.253 104.236 161.256 103.294C161.256 102.035 161.755 100.828 162.644 99.9374C163.532 99.0472 164.737 98.547 165.994 98.547Z" fill="currentColor"/>
                <path d="M31.1953 54.7797C31.6007 54.7797 31.997 54.6593 32.3341 54.4336C32.6712 54.208 32.9339 53.8872 33.0891 53.512C33.2442 53.1367 33.2848 52.7238 33.2057 52.3254C33.1266 51.927 32.9314 51.5611 32.6447 51.2738C32.358 50.9866 31.9928 50.791 31.5952 50.7118C31.1975 50.6326 30.7854 50.6732 30.4108 50.8287C30.0363 50.9841 29.7161 51.2473 29.4909 51.5851C29.2656 51.9228 29.1454 52.3199 29.1454 52.726C29.1438 52.9962 29.1957 53.264 29.2981 53.5139C29.4006 53.7638 29.5515 53.9908 29.7422 54.1819C29.9328 54.3729 30.1595 54.5241 30.4089 54.6267C30.6583 54.7294 30.9256 54.7814 31.1953 54.7797Z" fill="currentColor"/>
                <path d="M40.082 52.726C40.082 52.3199 39.9618 51.9228 39.7366 51.5851C39.5113 51.2473 39.1912 50.9841 38.8166 50.8287C38.4421 50.6732 38.0299 50.6326 37.6323 50.7118C37.2346 50.791 36.8694 50.9866 36.5827 51.2738C36.296 51.5611 36.1008 51.927 36.0217 52.3254C35.9426 52.7238 35.9832 53.1367 36.1384 53.512C36.2935 53.8872 36.5562 54.208 36.8933 54.4336C37.2304 54.6593 37.6268 54.7797 38.0322 54.7797C38.5758 54.7797 39.0972 54.5634 39.4816 54.1782C39.866 53.7931 40.082 53.2707 40.082 52.726Z" fill="currentColor"/>
                <path d="M46.9189 52.726C46.9189 52.3193 46.7984 51.9218 46.5726 51.5838C46.3468 51.2458 46.0259 50.9826 45.6506 50.8275C45.2754 50.6724 44.8626 50.6325 44.4646 50.7127C44.0667 50.793 43.7014 50.9898 43.4153 51.2782C43.1291 51.5667 42.9348 51.9338 42.8571 52.333C42.7794 52.7322 42.8218 53.1455 42.9788 53.5205C43.1358 53.8956 43.4005 54.2154 43.7392 54.4396C44.0779 54.6638 44.4754 54.7822 44.8813 54.7797C45.1499 54.7797 45.4159 54.7265 45.6639 54.6232C45.9119 54.5198 46.1371 54.3683 46.3265 54.1775C46.5158 53.9866 46.6657 53.7601 46.7673 53.511C46.869 53.2619 46.9205 52.9951 46.9189 52.726Z" fill="currentColor"/>
                <path d="M127.182 33.2835C127.474 33.2859 127.76 33.2014 128.004 33.0408C128.247 32.8801 128.438 32.6505 128.551 32.3811C128.665 32.1116 128.696 31.8145 128.64 31.5275C128.585 31.2404 128.446 30.9763 128.24 30.7687C128.035 30.5611 127.772 30.4193 127.486 30.3614C127.2 30.3034 126.903 30.3319 126.633 30.4432C126.364 30.5546 126.133 30.7437 125.97 30.9866C125.808 31.2296 125.721 31.5154 125.721 31.8078C125.721 32.197 125.875 32.5705 126.148 32.8469C126.422 33.1233 126.793 33.2802 127.182 33.2835Z" fill="currentColor"/>
                <path d="M9.89902 104.438H48.7233C49.0488 104.438 49.361 104.308 49.5912 104.077C49.8214 103.847 49.9507 103.534 49.9507 103.208C49.9507 102.882 49.8214 102.569 49.5912 102.338C49.361 102.108 49.0488 101.978 48.7233 101.978H9.89902C9.57348 101.978 9.26127 102.108 9.03108 102.338C8.80089 102.569 8.67157 102.882 8.67157 103.208C8.67157 103.534 8.80089 103.847 9.03108 104.077C9.26127 104.308 9.57348 104.438 9.89902 104.438Z" fill="currentColor"/>
                <path d="M9.89902 93.9477H34.8163C35.1418 93.9477 35.454 93.8182 35.6842 93.5875C35.9144 93.3569 36.0437 93.0441 36.0437 92.718C36.0437 92.3918 35.9144 92.079 35.6842 91.8484C35.454 91.6178 35.1418 91.4882 34.8163 91.4882H9.89902C9.57348 91.4882 9.26127 91.6178 9.03108 91.8484C8.80089 92.079 8.67157 92.3918 8.67157 92.718C8.67157 93.0441 8.80089 93.3569 9.03108 93.5875C9.26127 93.8182 9.57348 93.9477 9.89902 93.9477Z" fill="currentColor"/>
                <path d="M42.0091 93.9477H48.7233C49.0488 93.9477 49.361 93.8182 49.5912 93.5875C49.8214 93.3569 49.9507 93.0441 49.9507 92.718C49.9507 92.3918 49.8214 92.079 49.5912 91.8484C49.361 91.6178 49.0488 91.4882 48.7233 91.4882H42.0091C41.6836 91.4882 41.3714 91.6178 41.1412 91.8484C40.911 92.079 40.7817 92.3918 40.7817 92.718C40.7817 93.0441 40.911 93.3569 41.1412 93.5875C41.3714 93.8182 41.6836 93.9477 42.0091 93.9477Z" fill="currentColor"/>
                <path d="M9.89902 125.331H48.7233C49.0488 125.331 49.361 125.202 49.5912 124.971C49.8214 124.74 49.9507 124.428 49.9507 124.102C49.9507 123.775 49.8214 123.463 49.5912 123.232C49.361 123.001 49.0488 122.872 48.7233 122.872H9.89902C9.57348 122.872 9.26127 123.001 9.03108 123.232C8.80089 123.463 8.67157 123.775 8.67157 124.102C8.67157 124.428 8.80089 124.74 9.03108 124.971C9.26127 125.202 9.57348 125.331 9.89902 125.331Z" fill="currentColor"/>
                <path d="M48.7233 112.394H23.7937C23.4682 112.394 23.156 112.524 22.9258 112.754C22.6956 112.985 22.5663 113.298 22.5663 113.624C22.5663 113.95 22.6956 114.263 22.9258 114.494C23.156 114.724 23.4682 114.854 23.7937 114.854H48.7233C49.0488 114.854 49.361 114.724 49.5912 114.494C49.8214 114.263 49.9507 113.95 49.9507 113.624C49.9507 113.298 49.8214 112.985 49.5912 112.754C49.361 112.524 49.0488 112.394 48.7233 112.394Z" fill="currentColor"/>
                <path d="M9.89902 114.854H16.6132C16.9387 114.854 17.2509 114.724 17.4811 114.494C17.7113 114.263 17.8406 113.95 17.8406 113.624C17.8406 113.298 17.7113 112.985 17.4811 112.754C17.2509 112.524 16.9387 112.394 16.6132 112.394H9.89902C9.57348 112.394 9.26127 112.524 9.03108 112.754C8.80089 112.985 8.67157 113.298 8.67157 113.624C8.67157 113.95 8.80089 114.263 9.03108 114.494C9.26127 114.724 9.57348 114.854 9.89902 114.854Z" fill="currentColor"/>
            </g>
        </symbol>


        <symbol id="web1" viewBox="0 0 146.99 123.67">
            <path fill="currentColor"
                  d="M106.33,63.33a1,1,0,0,0,1-1V30.26a1,1,0,0,0-1-1H62.6a1,1,0,0,0-1,1V62.33a1,1,0,0,0,1,1Zm-42.73-2v-23a1,1,0,0,0,.24.05h41.49V61.33Zm41.73-30.07v5.12H63.84a.69.69,0,0,0-.24,0V31.26Z"/>
            <path fill="currentColor"
                  d="M86.36,50.23H68.45a1,1,0,0,0-1,1V56.9a1,1,0,0,0,1,1H86.36a1,1,0,0,0,1-1V51.23a1,1,0,0,0-1-1m-1,5.67H69.45V52.23H85.36Z"/>
            <path fill="currentColor"
                  d="M147,84.77a.9.9,0,0,0-.13-.45V6.8A6.8,6.8,0,0,0,140.07,0H21.64a6.81,6.81,0,0,0-6.8,6.8v24a1,1,0,0,0,2,0V6.8A4.8,4.8,0,0,1,21.64,2H140.07a4.8,4.8,0,0,1,4.79,4.8v9.75H23.06a1,1,0,0,0,0,2h121.8V83.77H48.08V43.7a7.33,7.33,0,0,0-7.33-7.32H7.32A7.32,7.32,0,0,0,0,43.7v72.65a7.32,7.32,0,0,0,7.32,7.32H40.75a7.33,7.33,0,0,0,7.33-7.32v-2.82h65.28a1,1,0,0,0,0-2H103.22L87.07,95.38a1,1,0,0,0-1.42,0,1,1,0,0,0,0,1.41l14.74,14.74H58L72.48,97.09H80a1,1,0,0,0,0-2H48.08V85.77h96.78v4.52a4.81,4.81,0,0,1-4.79,4.8H96.65a1,1,0,0,0,0,2h43.42a6.8,6.8,0,0,0,6.79-6.8V85.23a.91.91,0,0,0,.13-.46M46.08,116.35a5.33,5.33,0,0,1-5.33,5.32H7.32A5.33,5.33,0,0,1,2,116.35v-2.88H30a1,1,0,0,0,0-2H2V43.7a5.32,5.32,0,0,1,5.32-5.32H40.75a5.33,5.33,0,0,1,5.33,5.32ZM69.65,97.09,55.21,111.53H48.08V97.09Z"/>
            <path fill="currentColor" d="M24.6,10.52a1.67,1.67,0,1,0-1.67-1.67,1.66,1.66,0,0,0,1.67,1.67"/>
            <path fill="currentColor" d="M31.84,8.85a1.67,1.67,0,1,0-1.67,1.67,1.67,1.67,0,0,0,1.67-1.67"/>
            <path fill="currentColor" d="M37.41,8.85a1.67,1.67,0,1,0-1.66,1.67,1.66,1.66,0,0,0,1.66-1.67"/>
            <path fill="currentColor" d="M29.41,44H18.66a2.26,2.26,0,0,0,0,4.51H29.41a2.26,2.26,0,0,0,0-4.51"/>
            <polygon fill="#fcb912" points="108.1 60.7 123.93 56.53 91.88 45.62 103.93 76.54 108.1 60.7"/>
            <path fill="#fcb912" d="M39.08,112.47a1.67,1.67,0,1,1-1.67-1.67,1.67,1.67,0,0,1,1.67,1.67"/>
        </symbol>
        <symbol id="web" viewBox="0 0 200 200" fill="none">
            <g clip-path="url(#clip0_1_49)">
                <mask id="mask0_1_49" style="mask-type:luminance" maskUnits="userSpaceOnUse" x="9" y="42" width="181" height="153">
                    <path d="M190 42H9V194.317H190V42Z" fill="white"/>
                </mask>
                <g mask="url(#mask0_1_49)">
                    <path d="M139.932 120C140.259 120 140.572 119.87 140.803 119.639C141.034 119.408 141.164 119.095 141.164 118.768V79.2694C141.164 78.9428 141.034 78.6295 140.803 78.3985C140.572 78.1675 140.259 78.0378 139.932 78.0378H86.0842C85.7576 78.0378 85.4444 78.1675 85.2134 78.3985C84.9825 78.6295 84.8528 78.9428 84.8528 79.2694V118.768C84.8528 119.095 84.9825 119.408 85.2134 119.639C85.4444 119.87 85.7576 120 86.0842 120H139.932ZM87.3155 117.536V89.2088C87.4111 89.2413 87.5104 89.262 87.6111 89.2703H138.701V117.536H87.3155ZM138.701 80.5011V86.8071H87.6111C87.5133 86.7898 87.4133 86.7898 87.3155 86.8071V80.5011H138.701Z" fill="currentColor"/>
                    <path d="M115.342 103.865H93.2877C92.9611 103.865 92.6479 103.995 92.417 104.226C92.1861 104.457 92.0563 104.77 92.0563 105.097V112.08C92.0563 112.407 92.1861 112.72 92.417 112.951C92.6479 113.182 92.9611 113.312 93.2877 113.312H115.342C115.668 113.312 115.981 113.182 116.212 112.951C116.443 112.72 116.573 112.407 116.573 112.08V105.097C116.573 104.77 116.443 104.457 116.212 104.226C115.981 103.995 115.668 103.865 115.342 103.865ZM114.11 110.849H94.5191V106.329H114.11V110.849Z" fill="currentColor"/>
                    <path d="M190.012 146.418C190.01 146.219 189.955 146.023 189.852 145.852V50.3752C189.852 49.2753 189.636 48.1862 189.215 47.1701C188.794 46.154 188.177 45.2307 187.4 44.453C186.622 43.6753 185.699 43.0584 184.683 42.6375C183.667 42.2166 182.578 42 181.479 42H35.647C33.4272 42.0033 31.2993 42.8867 29.7297 44.4566C28.1601 46.0266 27.2769 48.1549 27.2736 50.3752V79.9345C27.2736 80.2612 27.4034 80.5744 27.6343 80.8054C27.8652 81.0364 28.1784 81.1662 28.505 81.1662C28.8316 81.1662 29.1448 81.0364 29.3757 80.8054C29.6066 80.5744 29.7364 80.2612 29.7364 79.9345V50.3752C29.7364 48.8072 30.3591 47.3035 31.4676 46.1948C32.576 45.0861 34.0794 44.4633 35.647 44.4633H181.479C183.044 44.4665 184.545 45.0908 185.65 46.1992C186.756 47.3075 187.377 48.8094 187.377 50.3752V62.3836H37.3955C37.069 62.3836 36.7558 62.5134 36.5248 62.7444C36.2939 62.9754 36.1642 63.2886 36.1642 63.6153C36.1642 63.9419 36.2939 64.2552 36.5248 64.4862C36.7558 64.7172 37.069 64.8469 37.3955 64.8469H187.377V145.187H68.2046V95.8227C68.2013 93.4305 67.2489 91.1373 65.5566 89.4469C63.8642 87.7565 61.5703 86.8071 59.1786 86.8071H18.0137C15.6231 86.8071 13.3304 87.7569 11.64 89.4477C9.94965 91.1384 9 93.4316 9 95.8227L9 185.301C9 187.692 9.94965 189.986 11.64 191.676C13.3304 193.367 15.6231 194.317 18.0137 194.317H59.1786C61.5703 194.317 63.8642 193.367 65.5566 191.677C67.2489 189.987 68.2013 187.694 68.2046 185.301V181.828H148.589C148.915 181.828 149.229 181.698 149.46 181.467C149.69 181.236 149.82 180.923 149.82 180.596C149.82 180.27 149.69 179.957 149.46 179.726C149.229 179.495 148.915 179.365 148.589 179.365H136.103L116.204 159.474C115.968 159.272 115.665 159.167 115.355 159.179C115.045 159.191 114.751 159.319 114.532 159.538C114.313 159.758 114.184 160.052 114.172 160.362C114.16 160.672 114.266 160.975 114.467 161.21L132.618 179.365H80.4198L98.2502 161.58H107.51C107.837 161.58 108.15 161.45 108.381 161.219C108.612 160.988 108.741 160.675 108.741 160.348C108.741 160.022 108.612 159.708 108.381 159.477C108.15 159.246 107.837 159.117 107.51 159.117H68.2046V147.65H187.377V153.205C187.377 154.771 186.756 156.272 185.65 157.381C184.545 158.489 183.044 159.113 181.479 159.117H128.013C127.686 159.117 127.373 159.246 127.142 159.477C126.911 159.708 126.781 160.022 126.781 160.348C126.781 160.675 126.911 160.988 127.142 161.219C127.373 161.45 127.686 161.58 128.013 161.58H181.479C183.698 161.577 185.824 160.693 187.392 159.123C188.959 157.552 189.84 155.424 189.84 153.205V146.973C189.941 146.805 189.996 146.614 190 146.418M65.7418 185.301C65.7386 187.04 65.0456 188.707 63.8151 189.935C62.5847 191.164 60.9171 191.854 59.1786 191.854H18.0137C16.2773 191.85 14.6129 191.159 13.3851 189.931C12.1572 188.703 11.466 187.038 11.4628 185.301V181.754H45.9413C46.2679 181.754 46.5811 181.624 46.812 181.393C47.0429 181.162 47.1727 180.849 47.1727 180.523C47.1727 180.196 47.0429 179.883 46.812 179.652C46.5811 179.421 46.2679 179.291 45.9413 179.291H11.4628V95.8227C11.4628 94.0849 12.1529 92.4183 13.3815 91.1895C14.61 89.9607 16.2763 89.2703 18.0137 89.2703H59.1786C60.9171 89.2703 62.5847 89.9603 63.8151 91.1887C65.0456 92.4172 65.7386 94.0838 65.7418 95.8227V185.301ZM94.7654 161.58L76.9843 179.365H68.2046V161.58H94.7654Z" fill="currentColor"/>
                    <path d="M39.2918 54.9568C39.6986 54.9568 40.0961 54.8362 40.4343 54.6102C40.7725 54.3842 41.0361 54.063 41.1917 53.6871C41.3474 53.3113 41.3881 52.8977 41.3087 52.4987C41.2294 52.0998 41.0335 51.7333 40.7459 51.4456C40.4583 51.158 40.0919 50.9621 39.693 50.8827C39.2941 50.8033 38.8807 50.8441 38.5049 50.9997C38.1291 51.1554 37.808 51.419 37.582 51.7573C37.3561 52.0955 37.2354 52.4932 37.2354 52.9C37.2338 53.1706 37.2859 53.4388 37.3887 53.6891C37.4914 53.9393 37.6428 54.1667 37.8341 54.3581C38.0254 54.5494 38.2527 54.7008 38.503 54.8036C38.7532 54.9064 39.0213 54.9585 39.2918 54.9568Z" fill="currentColor"/>
                    <path d="M48.207 52.9C48.207 52.4932 48.0864 52.0955 47.8605 51.7573C47.6345 51.419 47.3133 51.1554 46.9376 50.9997C46.5618 50.8441 46.1484 50.8033 45.7495 50.8827C45.3506 50.9621 44.9841 51.158 44.6965 51.4456C44.409 51.7333 44.2131 52.0998 44.1338 52.4987C44.0544 52.8977 44.0951 53.3113 44.2508 53.6871C44.4064 54.063 44.67 54.3842 45.0082 54.6102C45.3463 54.8362 45.7439 54.9568 46.1506 54.9568C46.696 54.9568 47.2191 54.7401 47.6047 54.3544C47.9904 53.9687 48.207 53.4455 48.207 52.9Z" fill="currentColor"/>
                    <path d="M55.0658 52.9C55.0658 52.4927 54.9449 52.0945 54.7184 51.756C54.4919 51.4175 54.17 51.1539 53.7935 50.9986C53.417 50.8433 53.0029 50.8033 52.6037 50.8836C52.2044 50.964 51.838 51.1611 51.5509 51.45C51.2639 51.7389 51.069 52.1065 50.991 52.5063C50.9131 52.9061 50.9556 53.3201 51.1131 53.6957C51.2706 54.0713 51.5361 54.3917 51.8759 54.6162C52.2157 54.8407 52.6145 54.9593 53.0217 54.9568C53.2912 54.9568 53.558 54.9036 53.8068 54.8C54.0556 54.6965 54.2815 54.5448 54.4715 54.3537C54.6614 54.1625 54.8118 53.9357 54.9138 53.6862C55.0157 53.4367 55.0674 53.1695 55.0658 52.9Z" fill="currentColor"/>
                    <path d="M45.2148 96.1922H31.9775C31.273 96.2391 30.6127 96.5521 30.1303 97.0678C29.6479 97.5835 29.3796 98.2633 29.3796 98.9695C29.3796 99.6757 29.6479 100.356 30.1303 100.871C30.6127 101.387 31.273 101.7 31.9775 101.747H45.2148C45.9193 101.7 46.5796 101.387 47.0619 100.871C47.5443 100.356 47.8127 99.6757 47.8127 98.9695C47.8127 98.2633 47.5443 97.5835 47.0619 97.0678C46.5796 96.5521 45.9193 96.2391 45.2148 96.1922Z" fill="currentColor"/>
                    <path d="M142.112 116.761L161.604 111.625L122.139 98.1874L136.977 136.27L142.112 116.761Z" fill="#FCB912"/>
                    <path d="M57.1222 180.523C57.1222 180.929 57.0016 181.327 56.7756 181.665C56.5497 182.004 56.2285 182.267 55.8527 182.423C55.477 182.578 55.0635 182.619 54.6646 182.54C54.2657 182.46 53.8993 182.265 53.6117 181.977C53.3241 181.689 53.1283 181.323 53.0489 180.924C52.9696 180.525 53.0103 180.111 53.1659 179.735C53.3216 179.36 53.5852 179.038 53.9233 178.812C54.2615 178.586 54.6591 178.466 55.0658 178.466C55.6112 178.466 56.1342 178.682 56.5199 179.068C56.9055 179.454 57.1222 179.977 57.1222 180.523Z" fill="#FCB912"/>
                </g>
            </g>
            <defs>
                <clipPath id="clip0_1_49">
                    <rect width="181" height="152.317" fill="white" transform="translate(9 42)"/>
                </clipPath>
            </defs>
        </symbol>

        
        <symbol id="webinar1" viewBox="0 0 132.15 126.46">
            <path fill="#fcb912"
                  d="M57.88,68V88.82a2.59,2.59,0,0,0,3.9,2.24l17.7-10.39a2.6,2.6,0,0,0,0-4.47L61.78,65.81A2.59,2.59,0,0,0,57.88,68"/>
            <path fill="#fcb912" d="M123.65,43.71A1.67,1.67,0,1,1,122,42a1.67,1.67,0,0,1,1.67,1.67"/>
            <path fill="currentColor"
                  d="M20.28,119a1,1,0,0,0,1-1V106.72a1,1,0,0,0-1-1H9a1,1,0,0,0-1,1V118a1,1,0,0,0,1,1ZM10,107.72h9.28V117H10Z"/>
            <path fill="currentColor"
                  d="M132.15,114.14a1,1,0,0,0-.12-.45V36.17a6.81,6.81,0,0,0-6.8-6.8H6.8A6.81,6.81,0,0,0,0,36.17v24a1,1,0,0,0,2,0V44.71H114.76a1,1,0,0,0,0-2H2V36.17a4.8,4.8,0,0,1,4.8-4.8H125.23a4.81,4.81,0,0,1,4.8,4.8v77H48a5.86,5.86,0,0,0-11.54,0H25.29a1,1,0,0,0,0,2H36.45a5.85,5.85,0,0,0,11.54,0h82v4.52a4.81,4.81,0,0,1-4.8,4.8H6.8a4.81,4.81,0,0,1-4.8-4.8v-45a1,1,0,0,0-2,0v45.05a6.81,6.81,0,0,0,6.8,6.8H125.23a6.81,6.81,0,0,0,6.8-6.8V114.6a1,1,0,0,0,.12-.46M42.22,118a3.87,3.87,0,1,1,3.87-3.87A3.87,3.87,0,0,1,42.22,118"/>
            <path fill="currentColor"
                  d="M53.63,58a1,1,0,0,0-.78-1.84,24.88,24.88,0,0,0-.4,45.61,1,1,0,0,0,1.32-.51,1,1,0,0,0-.5-1.32A22.88,22.88,0,0,1,53.63,58"/>
            <path fill="currentColor"
                  d="M34.48,59a1,1,0,0,0-1.39.24,34.33,34.33,0,0,0,0,39.64,1,1,0,0,0,.82.42,1,1,0,0,0,.57-.18,1,1,0,0,0,.24-1.4,32.34,32.34,0,0,1,0-37.33A1,1,0,0,0,34.48,59"/>
            <path fill="currentColor"
                  d="M78.76,99.9a1,1,0,0,0-.5,1.32,1,1,0,0,0,.91.6,1,1,0,0,0,.41-.09,24.88,24.88,0,0,0-.4-45.61A1,1,0,1,0,78.39,58a22.88,22.88,0,0,1,.37,41.94"/>
            <path fill="currentColor"
                  d="M40,15.78a1.09,1.09,0,0,0,.54.16,1,1,0,0,0,.84-.46,29.47,29.47,0,0,1,49.33-.27,1,1,0,0,0,1.38.28,1,1,0,0,0,.29-1.38,31.47,31.47,0,0,0-52.68.28,1,1,0,0,0,.3,1.39"/>
            <path fill="currentColor"
                  d="M80.36,19.47A1,1,0,0,0,82,18.37a19.14,19.14,0,0,0-32,.17,1,1,0,0,0,.3,1.39,1.09,1.09,0,0,0,.54.16,1,1,0,0,0,.84-.46,17.14,17.14,0,0,1,28.69-.16"/>
            <path fill="currentColor"
                  d="M66.05,19.55A12.1,12.1,0,0,0,55.86,25.1a1,1,0,0,0,.3,1.39,1,1,0,0,0,.54.16,1,1,0,0,0,.84-.46,10.11,10.11,0,0,1,16.95-.09A1,1,0,0,0,76.16,25a12.1,12.1,0,0,0-10.11-5.44"/>
            <path fill="currentColor"
                  d="M97.54,99.11a1,1,0,0,0,.58.18,1,1,0,0,0,.82-.42,34.33,34.33,0,0,0,0-39.64,1,1,0,0,0-1.63,1.15,32.32,32.32,0,0,1,0,37.33,1,1,0,0,0,.24,1.4"/>
            <path fill="#fcb912" d="M43.89,114.08a1.67,1.67,0,1,1-1.67-1.67,1.67,1.67,0,0,1,1.67,1.67"/>
        </symbol>
        <symbol id="webinar" viewBox="0 0 200 200" fill="none">
            <g clip-path="url(#clip0_1_72)">
                <mask id="mask0_1_72" style="mask-type:luminance" maskUnits="userSpaceOnUse" x="18" y="4" width="164" height="158">
                    <path d="M182 4H18V162H182V4Z" fill="white"/>
                </mask>
                <g mask="url(#mask0_1_72)">
                    <path d="M89.8299 88.9597V114.985C89.8308 115.554 89.981 116.113 90.2652 116.606C90.5494 117.098 90.9576 117.506 91.4486 117.789C91.9396 118.071 92.496 118.218 93.0616 118.215C93.6272 118.212 94.1819 118.059 94.6698 117.771L116.636 104.79C117.117 104.502 117.515 104.093 117.792 103.604C118.068 103.114 118.214 102.56 118.214 101.997C118.214 101.434 118.068 100.88 117.792 100.391C117.515 99.9013 117.117 99.4926 116.636 99.2048L94.6698 86.2235C94.1856 85.9375 93.6353 85.7842 93.0739 85.7789C92.5125 85.7736 91.9594 85.9164 91.4699 86.1932C90.9803 86.4699 90.5713 86.871 90.2836 87.3563C89.9959 87.8417 89.8394 88.3945 89.8299 88.9597Z" fill="#FCB912"/>
                    <path d="M171.451 58.6115C171.442 59.023 171.311 59.4223 171.076 59.7593C170.842 60.0963 170.513 60.3559 170.132 60.5054C169.751 60.6549 169.335 60.6877 168.936 60.5996C168.536 60.5115 168.172 60.3064 167.888 60.0102C167.604 59.7141 167.414 59.34 167.34 58.935C167.267 58.5301 167.315 58.1124 167.477 57.7346C167.639 57.3567 167.908 57.0355 168.251 56.8114C168.594 56.5873 168.995 56.4702 169.404 56.4751C169.953 56.4751 170.481 56.6949 170.869 57.0862C171.258 57.4775 171.476 58.0082 171.476 58.5616" fill="#FCB912"/>
                    <path d="M43.1678 152.679C43.4969 152.679 43.8125 152.548 44.0453 152.313C44.278 152.079 44.4088 151.761 44.4088 151.43V137.337C44.4088 137.005 44.278 136.688 44.0453 136.453C43.8125 136.219 43.4969 136.087 43.1678 136.087H29.1691C28.84 136.087 28.5243 136.219 28.2916 136.453C28.0589 136.688 27.9281 137.005 27.9281 137.337V151.43C27.9281 151.761 28.0589 152.079 28.2916 152.313C28.5243 152.548 28.84 152.679 29.1691 152.679H43.1678ZM30.4101 138.586H41.9267V150.181H30.4101V138.586Z" fill="currentColor"/>
                    <path d="M182 146.607C181.995 146.411 181.944 146.218 181.851 146.045V49.191C181.848 46.9388 180.958 44.7797 179.376 43.1871C177.794 41.5945 175.649 40.6984 173.412 40.6951H26.4389C24.2018 40.6984 22.0572 41.5945 20.4753 43.1871C18.8934 44.7797 18.0033 46.9388 18 49.191V79.1768C18 79.5082 18.1307 79.826 18.3635 80.0603C18.5962 80.2946 18.9119 80.4262 19.241 80.4262C19.5702 80.4262 19.8858 80.2946 20.1185 80.0603C20.3513 79.826 20.482 79.5082 20.482 79.1768V59.861H160.419C160.748 59.861 161.064 59.7293 161.296 59.495C161.529 59.2607 161.66 58.9429 161.66 58.6116C161.66 58.2802 161.529 57.9624 161.296 57.7281C161.064 57.4938 160.748 57.3622 160.419 57.3622H20.482V49.191C20.482 47.6005 21.1096 46.0751 22.2268 44.9504C23.3439 43.8257 24.859 43.1939 26.4389 43.1939H173.412C174.991 43.1972 176.504 43.8301 177.621 44.9541C178.737 46.078 179.366 47.6015 179.369 49.191V145.395H77.5687C77.2704 143.702 76.3893 142.168 75.0799 141.063C73.7706 139.958 72.1166 139.352 70.408 139.352C68.6995 139.352 67.0455 139.958 65.7361 141.063C64.4268 142.168 63.5457 143.702 63.2474 145.395H49.3852C49.0561 145.395 48.7405 145.527 48.5077 145.761C48.275 145.996 48.1442 146.313 48.1442 146.645C48.1442 146.976 48.275 147.294 48.5077 147.528C48.7405 147.763 49.0561 147.894 49.3852 147.894H63.235C63.5181 149.6 64.393 151.15 65.7041 152.267C67.0152 153.385 68.6776 153.999 70.3956 153.999C72.1136 153.999 73.776 153.385 75.0871 152.267C76.3982 151.15 77.2731 149.6 77.5563 147.894H179.319V153.542C179.316 155.131 178.687 156.655 177.571 157.778C176.455 158.902 174.941 159.535 173.363 159.539H26.4389C24.86 159.535 23.3468 158.902 22.2304 157.778C21.114 156.655 20.4853 155.131 20.482 153.542V97.3182C20.482 96.9868 20.3513 96.669 20.1185 96.4347C19.8858 96.2004 19.5702 96.0688 19.241 96.0688C18.9119 96.0688 18.5962 96.2004 18.3635 96.4347C18.1307 96.669 18 96.9868 18 97.3182V153.604C18.0033 155.856 18.8934 158.015 20.4753 159.608C22.0572 161.2 24.2018 162.097 26.4389 162.1H173.412C175.649 162.097 177.794 161.2 179.376 159.608C180.958 158.015 181.848 155.856 181.851 153.604V147.182C181.946 147.005 181.997 146.808 182 146.607ZM70.3956 151.43C69.4457 151.43 68.5172 151.146 67.7274 150.615C66.9376 150.084 66.322 149.329 65.9585 148.445C65.595 147.562 65.4999 146.589 65.6852 145.651C65.8705 144.714 66.3279 143.852 66.9996 143.176C67.6712 142.5 68.527 142.039 69.4586 141.852C70.3903 141.666 71.356 141.762 72.2335 142.128C73.1111 142.494 73.8612 143.113 74.3889 143.908C74.9167 144.704 75.1983 145.638 75.1983 146.595C75.1951 147.876 74.688 149.104 73.788 150.01C72.8881 150.916 71.6684 151.427 70.3956 151.43Z" fill="currentColor"/>
                    <path d="M84.5556 76.4656C84.8459 76.3281 85.072 76.0828 85.1865 75.7811C85.3011 75.4794 85.2951 75.1448 85.1699 74.8474C85.0447 74.55 84.81 74.313 84.515 74.1861C84.2199 74.0592 83.8876 74.0523 83.5876 74.1667C78.0583 76.5363 73.336 80.4789 69.9998 85.511C66.6636 90.5431 64.8585 96.446 64.8058 102.496C64.7531 108.546 66.4551 114.479 69.7031 119.57C72.9511 124.66 77.604 128.685 83.0912 131.152C83.2403 131.219 83.4009 131.255 83.564 131.259C83.7271 131.263 83.8893 131.235 84.0414 131.175C84.1936 131.116 84.3326 131.027 84.4507 130.914C84.5687 130.801 84.6634 130.665 84.7293 130.515C84.8636 130.213 84.8737 129.87 84.7574 129.561C84.6411 129.252 84.4079 129.002 84.1088 128.866C79.0636 126.597 74.7854 122.897 71.7986 118.217C68.8118 113.537 67.2462 108.081 67.2936 102.518C67.341 96.9559 68.9995 91.5281 72.0656 86.9005C75.1318 82.2728 79.4725 78.6464 84.5556 76.4656Z" fill="currentColor"/>
                    <path d="M60.7902 77.715C60.5216 77.5253 60.1894 77.4504 59.8662 77.5066C59.543 77.5628 59.255 77.7455 59.0652 78.0149C53.9788 85.257 51.2476 93.9085 51.2476 102.778C51.2476 111.648 53.9788 120.299 59.0652 127.541C59.1806 127.705 59.3333 127.837 59.5104 127.929C59.6875 128.02 59.8838 128.067 60.0828 128.066C60.3358 128.066 60.5827 127.987 60.7902 127.841C60.9244 127.747 61.0386 127.626 61.1264 127.487C61.2141 127.347 61.2735 127.192 61.3012 127.029C61.3289 126.866 61.3243 126.7 61.2877 126.539C61.2511 126.378 61.1832 126.226 61.088 126.092C56.2999 119.271 53.7289 111.124 53.7289 102.772C53.7289 94.4196 56.2999 86.2725 61.088 79.4517C61.2764 79.1813 61.3509 78.8469 61.2951 78.5215C61.2392 78.196 61.0577 77.9061 60.7902 77.715Z" fill="currentColor"/>
                    <path d="M115.742 128.816C115.443 128.952 115.21 129.202 115.094 129.511C114.977 129.82 114.987 130.163 115.122 130.465C115.218 130.686 115.376 130.875 115.576 131.008C115.777 131.141 116.011 131.213 116.251 131.215C116.427 131.214 116.6 131.175 116.76 131.102C122.247 128.635 126.9 124.61 130.148 119.52C133.396 114.429 135.098 108.496 135.045 102.446C134.993 96.3959 133.187 90.4931 129.851 85.461C126.515 80.4289 121.793 76.4863 116.263 74.1167C116.11 74.0519 115.946 74.0181 115.78 74.0172C115.614 74.0164 115.449 74.0485 115.295 74.1117C115.141 74.1749 115.001 74.2681 114.883 74.3857C114.765 74.5034 114.671 74.6434 114.607 74.7976C114.542 74.9518 114.509 75.1173 114.508 75.2846C114.507 75.4519 114.539 75.6177 114.602 75.7726C114.665 75.9275 114.757 76.0684 114.874 76.1873C114.991 76.3062 115.13 76.4008 115.283 76.4656C120.367 78.6451 124.708 82.2705 127.776 86.8974C130.843 91.5244 132.503 96.9518 132.551 102.514C132.6 108.077 131.036 113.533 128.05 118.214C125.064 122.894 120.787 126.596 115.742 128.866" fill="currentColor"/>
                    <path d="M67.6405 23.7156C67.9172 23.8941 68.2528 23.9549 68.5738 23.8846C68.8948 23.8143 69.1751 23.6188 69.3531 23.3408C72.6504 18.2027 77.1673 13.9726 82.4957 11.0327C87.8241 8.09283 93.7961 6.53581 99.8721 6.50233C105.948 6.46885 111.937 7.95996 117.297 10.8409C122.657 13.7219 127.219 17.902 130.572 23.0035C130.754 23.2773 131.036 23.4678 131.357 23.5333C131.678 23.5988 132.011 23.5341 132.285 23.3533C132.559 23.1721 132.751 22.889 132.818 22.5659C132.886 22.2429 132.823 21.9061 132.645 21.6291C129.065 16.1803 124.194 11.7152 118.47 8.63745C112.746 5.55967 106.351 3.96614 99.8626 4.00086C93.3738 4.03558 86.9959 5.69746 81.3051 8.83632C75.6143 11.9752 70.7901 16.4921 67.2682 21.9789C67.1785 22.1173 67.117 22.2722 67.0871 22.4347C67.0573 22.5972 67.0597 22.764 67.0943 22.9255C67.129 23.087 67.1951 23.24 67.2888 23.3757C67.3826 23.5113 67.5021 23.6268 67.6405 23.7156Z" fill="currentColor"/>
                    <path d="M117.728 28.3259C117.929 28.5433 118.2 28.6814 118.494 28.7155C118.787 28.7496 119.082 28.6775 119.327 28.512C119.572 28.3465 119.751 28.0986 119.831 27.8126C119.911 27.5267 119.887 27.2214 119.763 26.9516C117.584 23.6482 114.623 20.9422 111.147 19.0773C107.671 17.2123 103.789 16.2469 99.85 16.268C95.9112 16.289 92.0394 17.2959 88.5832 19.198C85.127 21.1 82.1948 23.8375 80.0507 27.164C79.961 27.3024 79.8994 27.4573 79.8696 27.6197C79.8397 27.7822 79.8422 27.9491 79.8768 28.1106C79.9114 28.2721 79.9775 28.4251 80.0713 28.5607C80.1651 28.6963 80.2846 28.8119 80.423 28.9007C80.6251 29.0253 80.8562 29.0942 81.0932 29.1006C81.3008 29.1002 81.505 29.0474 81.6872 28.947C81.8693 28.8466 82.0235 28.7018 82.1356 28.5259C84.0531 25.5375 86.6799 23.0771 89.7786 21.3671C92.8774 19.657 96.3505 18.7511 99.8843 18.7313C103.418 18.7115 106.901 19.5783 110.018 21.2534C113.136 22.9286 115.79 25.3593 117.74 28.3259" fill="currentColor"/>
                    <path d="M99.969 28.4259C97.4529 28.4225 94.9762 29.0558 92.7666 30.2674C90.5569 31.479 88.6851 33.2302 87.3231 35.3601C87.2333 35.4985 87.1718 35.6534 87.1419 35.8159C87.1121 35.9784 87.1145 36.1452 87.1491 36.3067C87.1838 36.4682 87.2499 36.6212 87.3436 36.7568C87.4374 36.8925 87.5569 37.008 87.6954 37.0968C87.8951 37.2267 88.1277 37.2961 88.3655 37.2967C88.5731 37.2964 88.7774 37.2436 88.9595 37.1432C89.1416 37.0427 89.2958 36.8979 89.408 36.722C90.538 34.9524 92.0891 33.4949 93.9205 32.4819C95.7519 31.4689 97.8057 30.9325 99.8953 30.9213C101.985 30.9102 104.044 31.4246 105.886 32.4179C107.728 33.4113 109.295 34.8521 110.443 36.6095C110.627 36.8802 110.909 37.0675 111.228 37.1309C111.547 37.1943 111.879 37.1288 112.151 36.9485C112.423 36.7682 112.613 36.4875 112.681 36.167C112.75 35.8465 112.69 35.5119 112.516 35.2352C111.147 33.1449 109.284 31.4296 107.094 30.2433C104.904 29.057 102.456 28.4368 99.969 28.4384" fill="currentColor"/>
                    <path d="M139.049 127.829C139.259 127.977 139.511 128.056 139.768 128.054C139.967 128.055 140.164 128.008 140.341 127.916C140.518 127.825 140.671 127.692 140.786 127.529C145.872 120.287 148.604 111.635 148.604 102.766C148.604 93.896 145.872 85.2445 140.786 78.0024C140.587 77.758 140.304 77.5985 139.993 77.556C139.682 77.5135 139.367 77.591 139.11 77.7731C138.854 77.9552 138.676 78.2283 138.611 78.5374C138.547 78.8465 138.601 79.1687 138.763 79.4392C143.555 86.2586 146.128 94.4062 146.128 102.759C146.128 111.113 143.555 119.26 138.763 126.08C138.668 126.214 138.6 126.366 138.563 126.527C138.527 126.687 138.522 126.854 138.55 127.017C138.578 127.179 138.637 127.335 138.725 127.474C138.812 127.613 138.927 127.734 139.061 127.829" fill="currentColor"/>
                    <path d="M72.4681 146.532C72.4681 146.945 72.3466 147.348 72.1188 147.692C71.8911 148.035 71.5674 148.302 71.1887 148.46C70.81 148.618 70.3933 148.659 69.9913 148.579C69.5893 148.498 69.22 148.299 68.9301 148.008C68.6403 147.716 68.4429 147.344 68.3629 146.939C68.283 146.535 68.324 146.115 68.4809 145.734C68.6377 145.353 68.9034 145.027 69.2442 144.797C69.585 144.568 69.9857 144.446 70.3956 144.446C70.9453 144.446 71.4724 144.666 71.8611 145.057C72.2498 145.448 72.4681 145.979 72.4681 146.532Z" fill="#FCB912"/>
                </g>
            </g>
            <defs>
                <clipPath id="clip0_1_72">
                    <rect width="164" height="158" fill="white" transform="translate(18 4)"/>
                </clipPath>
            </defs>
        </symbol>


        <symbol id="user" viewBox="0 0 24 24">
                <path d="M12 12.75C8.83 12.75 6.25 10.17 6.25 7C6.25 3.83 8.83 1.25 12 1.25C15.17 1.25 17.75 3.83 17.75 7C17.75 10.17 15.17 12.75 12 12.75ZM12 2.75C9.66 2.75 7.75 4.66 7.75 7C7.75 9.34 9.66 11.25 12 11.25C14.34 11.25 16.25 9.34 16.25 7C16.25 4.66 14.34 2.75 12 2.75Z" fill="#292D32"/>
                <path d="M20.5901 22.75C20.1801 22.75 19.8401 22.41 19.8401 22C19.8401 18.55 16.3202 15.75 12.0002 15.75C7.68015 15.75 4.16016 18.55 4.16016 22C4.16016 22.41 3.82016 22.75 3.41016 22.75C3.00016 22.75 2.66016 22.41 2.66016 22C2.66016 17.73 6.85015 14.25 12.0002 14.25C17.1502 14.25 21.3401 17.73 21.3401 22C21.3401 22.41 21.0001 22.75 20.5901 22.75Z" fill="#292D32"/>
        </symbol>


        <symbol id="phone-circle" fill="currentColor" viewBox="0 0 38.09 38.09">
            <path fill-rule="evenodd" d="M28,23.68c-.66-.52-1.38-1-2-1.46-1.39-.93-2.65-1-3.67.5a1.65,1.65,0,0,1-2.24.52,9.67,9.67,0,0,1-5.19-4.95,2.82,2.82,0,0,1-.27-1,1.76,1.76,0,0,1,.92-1.64A1.88,1.88,0,0,0,16.6,14c-.05-1.1-2.77-4.76-3.85-5.16a2.23,2.23,0,0,0-1.33,0C8.9,9.63,7.86,11.65,8.86,14a27.12,27.12,0,0,0,1.9,3.77,27.72,27.72,0,0,0,13.5,11.41,5.49,5.49,0,0,0,1.1.29,4.94,4.94,0,0,0,4.1-3.06C30,25,28.87,24.4,28,23.68"/>
            <path d="M19.05,38.09a19,19,0,1,1,19-19,19.06,19.06,0,0,1-19,19M19.05,2a17,17,0,1,0,17,17.05,17.07,17.07,0,0,0-17-17"/>
        </symbol>

        <symbol id="phone" viewBox="0 0 24 24" fill="currentColor">
            <path d="M17.45 22.75C16.32 22.75 15.13 22.48 13.9 21.96C12.7 21.45 11.49 20.75 10.31 19.9C9.14 19.04 8.01 18.08 6.94 17.03C5.88 15.96 4.92 14.83 4.07 13.67C3.21 12.47 2.52 11.27 2.03 10.11C1.51 8.87 1.25 7.67 1.25 6.54C1.25 5.76 1.39 5.02 1.66 4.33C1.94 3.62 2.39 2.96 3 2.39C3.77 1.63 4.65 1.25 5.59 1.25C5.98 1.25 6.38 1.34 6.72 1.5C7.11 1.68 7.44 1.95 7.68 2.31L10 5.58C10.21 5.87 10.37 6.15 10.48 6.43C10.61 6.73 10.68 7.03 10.68 7.32C10.68 7.7 10.57 8.07 10.36 8.42C10.21 8.69 9.98 8.98 9.69 9.27L9.01 9.98C9.02 10.01 9.03 10.03 9.04 10.05C9.16 10.26 9.4 10.62 9.86 11.16C10.35 11.72 10.81 12.23 11.27 12.7C11.86 13.28 12.35 13.74 12.81 14.12C13.38 14.6 13.75 14.84 13.97 14.95L13.95 15L14.68 14.28C14.99 13.97 15.29 13.74 15.58 13.59C16.13 13.25 16.83 13.19 17.53 13.48C17.79 13.59 18.07 13.74 18.37 13.95L21.69 16.31C22.06 16.56 22.33 16.88 22.49 17.26C22.64 17.64 22.71 17.99 22.71 18.34C22.71 18.82 22.6 19.3 22.39 19.75C22.18 20.2 21.92 20.59 21.59 20.95C21.02 21.58 20.4 22.03 19.68 22.32C18.99 22.6 18.24 22.75 17.45 22.75ZM5.59 2.75C5.04 2.75 4.53 2.99 4.04 3.47C3.58 3.9 3.26 4.37 3.06 4.88C2.85 5.4 2.75 5.95 2.75 6.54C2.75 7.47 2.97 8.48 3.41 9.52C3.86 10.58 4.49 11.68 5.29 12.78C6.09 13.88 7 14.95 8 15.96C9 16.95 10.08 17.87 11.19 18.68C12.27 19.47 13.38 20.11 14.48 20.57C16.19 21.3 17.79 21.47 19.11 20.92C19.62 20.71 20.07 20.39 20.48 19.93C20.71 19.68 20.89 19.41 21.04 19.09C21.16 18.84 21.22 18.58 21.22 18.32C21.22 18.16 21.19 18 21.11 17.82C21.08 17.76 21.02 17.65 20.83 17.52L17.51 15.16C17.31 15.02 17.13 14.92 16.96 14.85C16.74 14.76 16.65 14.67 16.31 14.88C16.11 14.98 15.93 15.13 15.73 15.33L14.97 16.08C14.58 16.46 13.98 16.55 13.52 16.38L13.25 16.26C12.84 16.04 12.36 15.7 11.83 15.25C11.35 14.84 10.83 14.36 10.2 13.74C9.71 13.24 9.22 12.71 8.71 12.12C8.24 11.57 7.9 11.1 7.69 10.71L7.57 10.41C7.51 10.18 7.49 10.05 7.49 9.91C7.49 9.55 7.62 9.23 7.87 8.98L8.62 8.2C8.82 8 8.97 7.81 9.07 7.64C9.15 7.51 9.18 7.4 9.18 7.3C9.18 7.22 9.15 7.1 9.1 6.98C9.03 6.82 8.92 6.64 8.78 6.45L6.46 3.17C6.36 3.03 6.24 2.93 6.09 2.86C5.93 2.79 5.76 2.75 5.59 2.75ZM13.95 15.01L13.79 15.69L14.06 14.99C14.01 14.98 13.97 14.99 13.95 15.01Z"/>
        </symbol>


        <symbol id="search" viewBox="0 0 24 24" fill="currentColor">
            <path d="M11.5 21.75C5.85 21.75 1.25 17.15 1.25 11.5C1.25 5.85 5.85 1.25 11.5 1.25C17.15 1.25 21.75 5.85 21.75 11.5C21.75 17.15 17.15 21.75 11.5 21.75ZM11.5 2.75C6.67 2.75 2.75 6.68 2.75 11.5C2.75 16.32 6.67 20.25 11.5 20.25C16.33 20.25 20.25 16.32 20.25 11.5C20.25 6.68 16.33 2.75 11.5 2.75Z"/>
            <path d="M22 22.7499C21.81 22.7499 21.62 22.6799 21.47 22.5299L19.47 20.5299C19.18 20.2399 19.18 19.7599 19.47 19.4699C19.76 19.1799 20.24 19.1799 20.53 19.4699L22.53 21.4699C22.82 21.7599 22.82 22.2399 22.53 22.5299C22.38 22.6799 22.19 22.7499 22 22.7499Z"/>
        </symbol>


        <symbol id="menu" viewBox="0 0 24 24" fill="currentColor">
            <path d="M21 7.75H3C2.59 7.75 2.25 7.41 2.25 7C2.25 6.59 2.59 6.25 3 6.25H21C21.41 6.25 21.75 6.59 21.75 7C21.75 7.41 21.41 7.75 21 7.75Z"/>
            <path d="M21 12.75H3C2.59 12.75 2.25 12.41 2.25 12C2.25 11.59 2.59 11.25 3 11.25H21C21.41 11.25 21.75 11.59 21.75 12C21.75 12.41 21.41 12.75 21 12.75Z"/>
            <path d="M21 17.75H3C2.59 17.75 2.25 17.41 2.25 17C2.25 16.59 2.59 16.25 3 16.25H21C21.41 16.25 21.75 16.59 21.75 17C21.75 17.41 21.41 17.75 21 17.75Z"/>
        </symbol>

        <symbol id="angle-down" viewBox="0 0 24 24" fill="currentColor">
            <path d="M12 16.8C11.3 16.8 10.6 16.53 10.07 16L3.55002 9.48C3.26002 9.19 3.26002 8.71 3.55002 8.42C3.84002 8.13 4.32002 8.13 4.61002 8.42L11.13 14.94C11.61 15.42 12.39 15.42 12.87 14.94L19.39 8.42C19.68 8.13 20.16 8.13 20.45 8.42C20.74 8.71 20.74 9.19 20.45 9.48L13.93 16C13.4 16.53 12.7 16.8 12 16.8Z" fill="#292D32"/>
        </symbol>
        <symbol id="file"  viewBox="0 0 24 24" fill="currentColor">
                <path d="M17 22.75H7C2.59 22.75 1.25 21.41 1.25 17V7C1.25 2.59 2.59 1.25 7 1.25H8.5C10.25 1.25 10.8 1.82 11.5 2.75L13 4.75C13.33 5.19 13.38 5.25 14 5.25H17C21.41 5.25 22.75 6.59 22.75 11V17C22.75 21.41 21.41 22.75 17 22.75ZM7 2.75C3.43 2.75 2.75 3.43 2.75 7V17C2.75 20.57 3.43 21.25 7 21.25H17C20.57 21.25 21.25 20.57 21.25 17V11C21.25 7.43 20.57 6.75 17 6.75H14C12.72 6.75 12.3 6.31 11.8 5.65L10.3 3.65C9.78 2.96 9.63 2.75 8.5 2.75H7V2.75Z" fill="#292D32"/>
        </symbol>
         <symbol id="close" viewBox="0 0 24 24" fill="currentColor">
            <path d="M12 22.75C6.07 22.75 1.25 17.93 1.25 12C1.25 6.07 6.07 1.25 12 1.25C17.93 1.25 22.75 6.07 22.75 12C22.75 17.93 17.93 22.75 12 22.75ZM12 2.75C6.9 2.75 2.75 6.9 2.75 12C2.75 17.1 6.9 21.25 12 21.25C17.1 21.25 21.25 17.1 21.25 12C21.25 6.9 17.1 2.75 12 2.75Z"/>
            <path d="M9.17 15.58C8.98 15.58 8.79 15.51 8.64 15.36C8.35 15.07 8.35 14.59 8.64 14.3L14.3 8.64C14.59 8.35 15.07 8.35 15.36 8.64C15.65 8.93 15.65 9.41 15.36 9.7L9.7 15.36C9.56 15.51 9.36 15.58 9.17 15.58Z" />
            <path d="M14.83 15.58C14.64 15.58 14.45 15.51 14.3 15.36L8.64 9.7C8.35 9.41 8.35 8.93 8.64 8.64C8.93 8.35 9.41 8.35 9.7 8.64L15.36 14.3C15.65 14.59 15.65 15.07 15.36 15.36C15.21 15.51 15.02 15.58 14.83 15.58Z"/>
        </symbol>





        <symbol id="location" fill="currentColor" viewBox="0 0 38.09 38.09">
            <path d="M19.05,38.09a19,19,0,1,1,19-19,19.06,19.06,0,0,1-19,19M19.05,2a17,17,0,1,0,17,17.05,17.07,17.07,0,0,0-17-17"/>
            <path d="M26.44,16.19a7.4,7.4,0,1,0-14.79,0,7.27,7.27,0,0,0,1.27,4.11v0L19,29.52l6.15-9.22h0a7.41,7.41,0,0,0,1.25-4.11M19,20.3a4.12,4.12,0,1,1,4.12-4.11A4.12,4.12,0,0,1,19,20.3"/>
        </symbol>

        <symbol id="email" viewBox="0 0 24 24" fill="currentColor">
            <path d="M17 21.25H7C3.35 21.25 1.25 19.15 1.25 15.5V8.5C1.25 4.85 3.35 2.75 7 2.75H17C20.65 2.75 22.75 4.85 22.75 8.5V15.5C22.75 19.15 20.65 21.25 17 21.25ZM7 4.25C4.14 4.25 2.75 5.64 2.75 8.5V15.5C2.75 18.36 4.14 19.75 7 19.75H17C19.86 19.75 21.25 18.36 21.25 15.5V8.5C21.25 5.64 19.86 4.25 17 4.25H7Z"/>
            <path d="M11.9998 12.87C11.1598 12.87 10.3098 12.61 9.65978 12.08L6.52978 9.57997C6.20978 9.31997 6.14978 8.84997 6.40978 8.52997C6.66978 8.20997 7.13978 8.14997 7.45978 8.40997L10.5898 10.91C11.3498 11.52 12.6398 11.52 13.3998 10.91L16.5298 8.40997C16.8498 8.14997 17.3298 8.19997 17.5798 8.52997C17.8398 8.84997 17.7898 9.32997 17.4598 9.57997L14.3298 12.08C13.6898 12.61 12.8398 12.87 11.9998 12.87Z"/>
        </symbol>


        <!-- SOCIALS -->
        <symbol id="bale" fill="currentColor" viewBox="0 0 28.12 28.41">
            <path d="M14.06,28.41h-.19A14.2,14.2,0,0,1,0,14.17V2.66A2.64,2.64,0,0,1,1.46.29,2.64,2.64,0,0,1,4.24.52L6.7,2.37A14,14,0,0,1,14.06.29h0a14.13,14.13,0,0,1,14,14.6,14,14,0,0,1-14,13.52M2.67,2a.71.71,0,0,0-.31.07A.64.64,0,0,0,2,2.66V14.17A12.2,12.2,0,0,0,13.9,26.41,12,12,0,0,0,22.74,6a12,12,0,0,0-8.65-3.72h0A12,12,0,0,0,7.21,4.42l-.61.43L6,4.38c-.54-.43-1.57-1.21-3-2.25A.62.62,0,0,0,2.67,2"/>
            <path d="M11.58,20.85h0a2.51,2.51,0,0,1-1.77-.73L5.52,15.83A2.5,2.5,0,0,1,9.06,12.3l2.52,2.52,6.24-6.24a2.5,2.5,0,1,1,3.54,3.53l-8,8a2.51,2.51,0,0,1-1.77.73"/>
        </symbol>
        <symbol id="instagram" fill="currentColor" viewBox="0 0 28.12 28.12">
            <path d="M19,28.12H9.15A9.17,9.17,0,0,1,0,19V9.15A9.17,9.17,0,0,1,9.15,0H19a9.17,9.17,0,0,1,9.15,9.15V19A9.17,9.17,0,0,1,19,28.12M9.15,2A7.16,7.16,0,0,0,2,9.15V19a7.16,7.16,0,0,0,7.15,7.15H19A7.16,7.16,0,0,0,26.12,19V9.15A7.16,7.16,0,0,0,19,2Z"/>
            <path d="M14.06,20.83a6.77,6.77,0,1,1,6.77-6.77,6.78,6.78,0,0,1-6.77,6.77m0-11.54a4.77,4.77,0,1,0,4.77,4.77,4.78,4.78,0,0,0-4.77-4.77"/>
            <path d="M23.45,6.67a1.81,1.81,0,1,1-1.81-1.81,1.81,1.81,0,0,1,1.81,1.81"/>
        </symbol>
        <symbol id="telegram" fill="currentColor" viewBox="0 0 28.12 28.12">
            <path d="M14.06,28.12A14.06,14.06,0,1,1,28.12,14.06,14.08,14.08,0,0,1,14.06,28.12M14.06,2A12.06,12.06,0,1,0,26.12,14.06,12.07,12.07,0,0,0,14.06,2"/>
            <path d="M11,19.68c-.68-1.34-1.27-2.59-1.93-3.79a1.81,1.81,0,0,0-.87-.77c-.84-.35-1.73-.58-2.58-.9l-.06,0a.56.56,0,0,1,0-1l.06,0L19.91,7.77c.66-.25.95,0,.77.69q-1.38,5.63-2.81,11.23a.93.93,0,0,1-1.6.54c-.9-.65-1.79-1.31-2.65-2a.59.59,0,0,0-.94,0c-.49.46-1,.89-1.67,1.42m.08-1.39s0-.8,0-1.05c0-.45,0-1,0-1s.49-.48.71-.66c1.47-1.21,2.87-2.48,4.3-3.73l1.38-1.23-.08-.1-7.82,4.7c.48,1,1.51,3.1,1.51,3.1"/>
        </symbol>
        <symbol id="whatsapp" fill="currentColor" viewBox="0 0 28.11 28.15">
            <path d="M20.76,16.53c-.36-.17-2-1-2.33-1.13s-.56-.17-.79.19a14.26,14.26,0,0,1-1.08,1.31c-.21.25-.41.27-.73.11a8.82,8.82,0,0,1-2.77-1.7A10.08,10.08,0,0,1,11.15,13a.54.54,0,0,1,.14-.73,3.89,3.89,0,0,0,.52-.59.44.44,0,0,0,.12-.15,3.11,3.11,0,0,0,.22-.4.54.54,0,0,0,0-.59c-.06-.17-.76-1.87-1-2.54s-.55-.69-1.12-.69a1.41,1.41,0,0,0-1.21.53,3.64,3.64,0,0,0-1.23,2.84,3.39,3.39,0,0,0,.21,1.14,7.57,7.57,0,0,0,1.2,2.37c.17.23,2.37,3.77,5.86,5.13s3.51.89,4.12.85a3.42,3.42,0,0,0,2.32-1.63,2.79,2.79,0,0,0,.19-1.62,2.07,2.07,0,0,0-.65-.37"/>
            <path d="M0,28.15l.61-1.91s1.25-3.91,1.8-5.57a13.77,13.77,0,1,1,5,5c-1.77.54-5.44,1.82-5.48,1.83Zm7.67-4.66.38.24A11.75,11.75,0,1,0,4.35,20l.25.4-.15.45c-.24.71-.85,2.61-1.33,4.08,1.4-.47,3.21-1.08,4.12-1.34Z"/>
        </symbol>
        <symbol id="behance" viewBox="0 0 24 24" fill="currentColor">
            <path d="M22 7h-7v-2h7v2zm1.726 10c-.442 1.297-2.029 3-5.101 3-3.074 0-5.564-1.729-5.564-5.675 0-3.91 2.325-5.92 5.466-5.92 3.082 0 4.964 1.782 5.375 4.426.078.506.109 1.188.095 2.14h-8.027c.13 3.211 3.483 3.312 4.588 2.029h3.168zm-7.686-4h4.965c-.105-1.547-1.136-2.219-2.477-2.219-1.466 0-2.277.768-2.488 2.219zm-9.574 6.988h-6.466v-14.967h6.953c5.476.081 5.58 5.444 2.72 6.906 3.461 1.26 3.577 8.061-3.207 8.061zm-3.466-8.988h3.584c2.508 0 2.906-3-.312-3h-3.272v3zm3.391 3h-3.391v3.016h3.341c3.055 0 2.868-3.016.05-3.016z"/>
        </symbol>
        <symbol id="pinterest" viewBox="0 0 511.998 511.998" xml:space="preserve" fill="currentColor">
            <path d="M405.017,52.467C369.774,18.634,321.001,0,267.684,0C186.24,0,136.148,33.385,108.468,61.39  c-34.114,34.513-53.675,80.34-53.675,125.732c0,56.993,23.839,100.737,63.76,117.011c2.68,1.098,5.377,1.651,8.021,1.651  c8.422,0,15.095-5.511,17.407-14.35c1.348-5.071,4.47-17.582,5.828-23.013c2.906-10.725,0.558-15.884-5.78-23.353  c-11.546-13.662-16.923-29.817-16.923-50.842c0-62.451,46.502-128.823,132.689-128.823c68.386,0,110.866,38.868,110.866,101.434  c0,39.482-8.504,76.046-23.951,102.961c-10.734,18.702-29.609,40.995-58.585,40.995c-12.53,0-23.786-5.147-30.888-14.121  c-6.709-8.483-8.921-19.441-6.222-30.862c3.048-12.904,7.205-26.364,11.228-39.376c7.337-23.766,14.273-46.213,14.273-64.122  c0-30.632-18.832-51.215-46.857-51.215c-35.616,0-63.519,36.174-63.519,82.354c0,22.648,6.019,39.588,8.744,46.092  c-4.487,19.01-31.153,132.03-36.211,153.342c-2.925,12.441-20.543,110.705,8.618,118.54c32.764,8.803,62.051-86.899,65.032-97.713  c2.416-8.795,10.869-42.052,16.049-62.495c15.817,15.235,41.284,25.535,66.064,25.535c46.715,0,88.727-21.022,118.298-59.189  c28.679-37.02,44.474-88.618,44.474-145.282C457.206,127.983,438.182,84.311,405.017,52.467z"/>
        </symbol>
        <symbol id="facebook" viewBox="0 0 24 24" fill="currentColor">
            <path d="M14.75 22.75H10.25V15.5H9.29999C8.71999 15.5 8.25 15.03 8.25 14.45V12.55C8.25 11.97 8.71999 11.5 9.29999 11.5H10.25V9C10.25 6.93 11.93 5.25 14 5.25H16.7C17.28 5.25 17.75 5.71999 17.75 6.29999V8.70001C17.75 9.28001 17.28 9.75 16.7 9.75H14.75V11.5H16.63C16.95 11.5 17.24 11.64 17.44 11.88C17.64 12.12 17.72 12.44 17.66 12.75L17.28 14.65C17.18 15.14 16.75 15.49 16.25 15.49H14.75V22.75ZM11.75 21.25H13.25V14H15.89L16.09 13H13.26V9.29999C13.26 8.71999 13.73 8.25 14.31 8.25H16.26V6.75H14C12.76 6.75 11.75 7.76 11.75 9V13H9.75V14H11.75V21.25Z"/>
            <path d="M15 22.75H9C3.57 22.75 1.25 20.43 1.25 15V9C1.25 3.57 3.57 1.25 9 1.25H15C20.43 1.25 22.75 3.57 22.75 9V15C22.75 20.43 20.43 22.75 15 22.75ZM9 2.75C4.39 2.75 2.75 4.39 2.75 9V15C2.75 19.61 4.39 21.25 9 21.25H15C19.61 21.25 21.25 19.61 21.25 15V9C21.25 4.39 19.61 2.75 15 2.75H9Z"/>
        </symbol>
        <symbol id="youtube" viewBox="0 0 24 24" fill="currentColor">
            <path d="M17 20.75H7C3.56 20.75 1.25 18.44 1.25 15V9C1.25 5.56 3.56 3.25 7 3.25H17C20.44 3.25 22.75 5.56 22.75 9V15C22.75 18.44 20.44 20.75 17 20.75ZM7 4.75C4.42 4.75 2.75 6.42 2.75 9V15C2.75 17.58 4.42 19.25 7 19.25H17C19.58 19.25 21.25 17.58 21.25 15V9C21.25 6.42 19.58 4.75 17 4.75H7Z" />
            <path d="M10.5901 15.53C10.3001 15.53 10.0201 15.46 9.77014 15.32C9.19014 14.99 8.8501 14.32 8.8501 13.49V10.53C8.8501 9.69997 9.18014 9.02999 9.77014 8.69999C10.3501 8.36999 11.1001 8.42996 11.8101 8.85996L14.2802 10.34C14.9602 10.75 15.3501 11.36 15.3501 12.01C15.3501 12.66 14.9602 13.27 14.2802 13.68L11.8101 15.16C11.4001 15.4 10.9801 15.53 10.5901 15.53ZM10.5901 9.96998C10.5501 9.96998 10.5201 9.97997 10.5001 9.98997C10.4301 10.03 10.3501 10.21 10.3501 10.52V13.48C10.3501 13.78 10.4301 13.96 10.5001 14.01C10.5801 14.05 10.7702 14.03 11.0302 13.87L13.5001 12.39C13.7501 12.24 13.8401 12.09 13.8401 12C13.8401 11.91 13.7501 11.77 13.5001 11.61L11.0302 10.13C10.8502 10.02 10.6901 9.96998 10.5901 9.96998Z"/>
        </symbol>
        <symbol id="linkedin" viewBox="0 0 50 50" fill="currentColor">
            <path d="M41,4H9C6.24,4,4,6.24,4,9v32c0,2.76,2.24,5,5,5h32c2.76,0,5-2.24,5-5V9C46,6.24,43.76,4,41,4z M17,20v19h-6V20H17z M11,14.47c0-1.4,1.2-2.47,3-2.47s2.93,1.07,3,2.47c0,1.4-1.12,2.53-3,2.53C12.2,17,11,15.87,11,14.47z M39,39h-6c0,0,0-9.26,0-10 c0-2-1-4-3.5-4.04h-0.08C27,24.96,26,27.02,26,29c0,0.91,0,10,0,10h-6V20h6v2.56c0,0,1.93-2.56,5.81-2.56 c3.97,0,7.19,2.73,7.19,8.26V39z"/>
        </symbol>


    </defs>
</svg>